<svg width="922" height="227" viewBox="0 0 922 227" fill="none" xmlns="http://www.w3.org/2000/svg">
<g clip-path="url(#clip0_77_2)">
<path d="M515.828 213.836H507.133V208.352H515.828C517.172 208.352 518.266 208.133 519.109 207.695C519.953 207.242 520.57 206.617 520.961 205.82C521.352 205.023 521.547 204.125 521.547 203.125C521.547 202.109 521.352 201.164 520.961 200.289C520.57 199.414 519.953 198.711 519.109 198.18C518.266 197.648 517.172 197.383 515.828 197.383H509.57V226H502.539V191.875H515.828C518.5 191.875 520.789 192.359 522.695 193.328C524.617 194.281 526.086 195.602 527.102 197.289C528.117 198.977 528.625 200.906 528.625 203.078C528.625 205.281 528.117 207.188 527.102 208.797C526.086 210.406 524.617 211.648 522.695 212.523C520.789 213.398 518.5 213.836 515.828 213.836ZM533.477 191.875H546.203C548.812 191.875 551.055 192.266 552.93 193.047C554.82 193.828 556.273 194.984 557.289 196.516C558.305 198.047 558.812 199.93 558.812 202.164C558.812 203.992 558.5 205.562 557.875 206.875C557.266 208.172 556.398 209.258 555.273 210.133C554.164 210.992 552.859 211.68 551.359 212.195L549.133 213.367H538.07L538.023 207.883H546.25C547.484 207.883 548.508 207.664 549.32 207.227C550.133 206.789 550.742 206.18 551.148 205.398C551.57 204.617 551.781 203.711 551.781 202.68C551.781 201.586 551.578 200.641 551.172 199.844C550.766 199.047 550.148 198.438 549.32 198.016C548.492 197.594 547.453 197.383 546.203 197.383H540.508V226H533.477V191.875ZM552.555 226L544.773 210.789L552.203 210.742L560.078 225.672V226H552.555ZM571.703 191.875V226H564.695V191.875H571.703ZM606.062 191.875V226H599.031L585.32 203.125V226H578.289V191.875H585.32L599.055 214.773V191.875H606.062ZM626.734 191.875V226H619.727V191.875H626.734ZM637.234 191.875V197.383H609.391V191.875H637.234ZM648.719 191.875V226H641.711V191.875H648.719ZM683.078 191.875V226H676.047L662.336 203.125V226H655.305V191.875H662.336L676.07 214.773V191.875H683.078ZM716.242 208.164V221.688C715.711 222.328 714.891 223.023 713.781 223.773C712.672 224.508 711.242 225.141 709.492 225.672C707.742 226.203 705.625 226.469 703.141 226.469C700.938 226.469 698.93 226.109 697.117 225.391C695.305 224.656 693.742 223.586 692.43 222.18C691.133 220.773 690.133 219.055 689.43 217.023C688.727 214.977 688.375 212.641 688.375 210.016V207.883C688.375 205.258 688.711 202.922 689.383 200.875C690.07 198.828 691.047 197.102 692.312 195.695C693.578 194.289 695.086 193.219 696.836 192.484C698.586 191.75 700.531 191.383 702.672 191.383C705.641 191.383 708.078 191.867 709.984 192.836C711.891 193.789 713.344 195.117 714.344 196.82C715.359 198.508 715.984 200.445 716.219 202.633H709.398C709.227 201.477 708.898 200.469 708.414 199.609C707.93 198.75 707.234 198.078 706.328 197.594C705.438 197.109 704.281 196.867 702.859 196.867C701.688 196.867 700.641 197.109 699.719 197.594C698.812 198.062 698.047 198.758 697.422 199.68C696.797 200.602 696.32 201.742 695.992 203.102C695.664 204.461 695.5 206.039 695.5 207.836V210.016C695.5 211.797 695.672 213.375 696.016 214.75C696.359 216.109 696.867 217.258 697.539 218.195C698.227 219.117 699.07 219.812 700.07 220.281C701.07 220.75 702.234 220.984 703.562 220.984C704.672 220.984 705.594 220.891 706.328 220.703C707.078 220.516 707.68 220.289 708.133 220.023C708.602 219.742 708.961 219.477 709.211 219.227V213.18H702.789V208.164H716.242ZM751.633 217.07C751.633 216.461 751.539 215.914 751.352 215.43C751.18 214.93 750.852 214.477 750.367 214.07C749.883 213.648 749.203 213.234 748.328 212.828C747.453 212.422 746.32 212 744.93 211.562C743.383 211.062 741.914 210.5 740.523 209.875C739.148 209.25 737.93 208.523 736.867 207.695C735.82 206.852 734.992 205.875 734.383 204.766C733.789 203.656 733.492 202.367 733.492 200.898C733.492 199.477 733.805 198.188 734.43 197.031C735.055 195.859 735.93 194.859 737.055 194.031C738.18 193.188 739.508 192.539 741.039 192.086C742.586 191.633 744.281 191.406 746.125 191.406C748.641 191.406 750.836 191.859 752.711 192.766C754.586 193.672 756.039 194.914 757.07 196.492C758.117 198.07 758.641 199.875 758.641 201.906H751.656C751.656 200.906 751.445 200.031 751.023 199.281C750.617 198.516 749.992 197.914 749.148 197.477C748.32 197.039 747.273 196.82 746.008 196.82C744.789 196.82 743.773 197.008 742.961 197.383C742.148 197.742 741.539 198.234 741.133 198.859C740.727 199.469 740.523 200.156 740.523 200.922C740.523 201.5 740.664 202.023 740.945 202.492C741.242 202.961 741.68 203.398 742.258 203.805C742.836 204.211 743.547 204.594 744.391 204.953C745.234 205.312 746.211 205.664 747.32 206.008C749.18 206.57 750.812 207.203 752.219 207.906C753.641 208.609 754.828 209.398 755.781 210.273C756.734 211.148 757.453 212.141 757.938 213.25C758.422 214.359 758.664 215.617 758.664 217.023C758.664 218.508 758.375 219.836 757.797 221.008C757.219 222.18 756.383 223.172 755.289 223.984C754.195 224.797 752.891 225.414 751.375 225.836C749.859 226.258 748.164 226.469 746.289 226.469C744.602 226.469 742.938 226.25 741.297 225.812C739.656 225.359 738.164 224.68 736.82 223.773C735.492 222.867 734.43 221.711 733.633 220.305C732.836 218.898 732.438 217.234 732.438 215.312H739.492C739.492 216.375 739.656 217.273 739.984 218.008C740.312 218.742 740.773 219.336 741.367 219.789C741.977 220.242 742.695 220.57 743.523 220.773C744.367 220.977 745.289 221.078 746.289 221.078C747.508 221.078 748.508 220.906 749.289 220.562C750.086 220.219 750.672 219.742 751.047 219.133C751.438 218.523 751.633 217.836 751.633 217.07ZM786.344 220.516V226H768.18V220.516H786.344ZM770.477 191.875V226H763.445V191.875H770.477ZM783.977 205.773V211.117H768.18V205.773H783.977ZM786.32 191.875V197.383H768.18V191.875H786.32ZM790.445 191.875H803.172C805.781 191.875 808.023 192.266 809.898 193.047C811.789 193.828 813.242 194.984 814.258 196.516C815.273 198.047 815.781 199.93 815.781 202.164C815.781 203.992 815.469 205.562 814.844 206.875C814.234 208.172 813.367 209.258 812.242 210.133C811.133 210.992 809.828 211.68 808.328 212.195L806.102 213.367H795.039L794.992 207.883H803.219C804.453 207.883 805.477 207.664 806.289 207.227C807.102 206.789 807.711 206.18 808.117 205.398C808.539 204.617 808.75 203.711 808.75 202.68C808.75 201.586 808.547 200.641 808.141 199.844C807.734 199.047 807.117 198.438 806.289 198.016C805.461 197.594 804.422 197.383 803.172 197.383H797.477V226H790.445V191.875ZM809.523 226L801.742 210.789L809.172 210.742L817.047 225.672V226H809.523ZM833.031 218.875L841.07 191.875H848.898L837.016 226H831.859L833.031 218.875ZM825.625 191.875L833.641 218.875L834.859 226H829.656L817.844 191.875H825.625ZM859.562 191.875V226H852.555V191.875H859.562ZM885.93 214.68H892.938C892.797 216.977 892.164 219.016 891.039 220.797C889.93 222.578 888.375 223.969 886.375 224.969C884.391 225.969 882 226.469 879.203 226.469C877.016 226.469 875.055 226.094 873.32 225.344C871.586 224.578 870.102 223.484 868.867 222.062C867.648 220.641 866.719 218.922 866.078 216.906C865.438 214.891 865.117 212.633 865.117 210.133V207.766C865.117 205.266 865.445 203.008 866.102 200.992C866.773 198.961 867.727 197.234 868.961 195.812C870.211 194.391 871.703 193.297 873.438 192.531C875.172 191.766 877.109 191.383 879.25 191.383C882.094 191.383 884.492 191.898 886.445 192.93C888.414 193.961 889.938 195.383 891.016 197.195C892.109 199.008 892.766 201.07 892.984 203.383H885.953C885.875 202.008 885.602 200.844 885.133 199.891C884.664 198.922 883.953 198.195 883 197.711C882.062 197.211 880.812 196.961 879.25 196.961C878.078 196.961 877.055 197.18 876.18 197.617C875.305 198.055 874.57 198.719 873.977 199.609C873.383 200.5 872.938 201.625 872.641 202.984C872.359 204.328 872.219 205.906 872.219 207.719V210.133C872.219 211.898 872.352 213.453 872.617 214.797C872.883 216.125 873.289 217.25 873.836 218.172C874.398 219.078 875.117 219.766 875.992 220.234C876.883 220.688 877.953 220.914 879.203 220.914C880.672 220.914 881.883 220.68 882.836 220.211C883.789 219.742 884.516 219.047 885.016 218.125C885.531 217.203 885.836 216.055 885.93 214.68ZM920.453 220.516V226H902.289V220.516H920.453ZM904.586 191.875V226H897.555V191.875H904.586ZM918.086 205.773V211.117H902.289V205.773H918.086ZM920.43 191.875V197.383H902.289V191.875H920.43Z" fill="#ECF0F1"/>
<path d="M60.8588 50.16C90.1388 50.16 100.699 59.6 96.8588 87.12C92.8588 116.08 82.4587 122.32 55.4188 122.32C48.3788 122.32 41.1788 121.68 34.7788 120.88L29.0188 162H4.69875L20.2188 51.6C33.3388 50.32 42.1388 50.16 60.8588 50.16ZM72.8588 85.36C74.7788 72.24 71.4188 68.88 60.2188 68.88L42.1388 69.04L37.1788 103.6H53.8188C66.9388 103.6 70.6188 100.4 72.8588 85.36ZM159.799 49.52C192.599 49.52 206.359 63.6 200.279 107.76C194.359 151.6 180.119 164.08 147.159 164.08C113.559 164.08 100.439 150.32 106.359 105.84C112.279 63.12 126.039 49.52 159.799 49.52ZM158.999 69.2C142.039 69.2 136.439 77.04 131.959 107.76C127.799 136.56 131.159 144.4 147.639 144.4C164.439 144.4 170.359 136.24 174.839 105.84C179.159 76.24 175.319 69.2 158.999 69.2ZM250.469 51.6L238.789 134C238.149 139.28 239.429 142.16 245.989 142.16H283.749L283.269 160.88C269.189 162.32 252.389 162.48 236.869 162.48C221.349 162.48 211.909 153.2 214.309 137.04L225.989 51.6H250.469ZM319.96 162H295.48L311 51.6H335.48L319.96 162ZM445.399 51.76L468.919 51.6C474.839 51.6 478.039 55.28 477.399 61.04L467.479 162H444.439L454.039 70.64H451.319L425.239 139.44C423.479 144.72 420.279 146.8 414.839 146.8H398.839C393.399 146.8 390.199 143.76 389.719 138.64L381.879 70.64H379.159L363.319 162H340.279L358.679 60.24C359.639 54.32 362.359 51.6 368.279 51.6H391.159C396.439 51.6 399.319 54.64 399.799 59.92L406.039 114.96C406.679 120.24 406.839 125.2 406.839 130.64H409.079C410.839 124.88 412.439 120.24 414.199 115.44L434.999 59.12C436.759 53.84 439.959 51.76 445.399 51.76ZM573.428 70.8H532.148C526.068 70.8 523.668 72.88 522.868 79.44L520.628 96.08H563.987L561.748 113.36H518.228L515.188 134.64C514.388 140.56 516.308 142.8 522.388 142.8H563.188L562.548 160.88C548.468 162.48 530.227 162.48 514.708 162.48C496.308 162.48 488.308 151.92 490.388 135.92L499.188 72.88C501.108 59.44 510.228 51.12 525.588 51.12C543.188 51.12 561.908 51.28 576.468 52.88L573.428 70.8ZM672.67 83.76C670.75 98.16 664.51 108.24 647.87 110.16L647.71 111.12C653.79 112.56 659.23 116.72 660.99 128.08L666.75 162H641.79L636.67 127.76C635.87 120.88 633.31 118.96 627.39 118.96H609.15L603.07 162H579.23L594.75 51.6C607.87 50.32 617.79 50.16 635.55 50.16C661.31 50.16 676.19 58 672.67 83.76ZM611.71 100.08H629.15C641.79 100.08 646.43 96.4 648.35 83.44C649.95 72.4 646.75 68.88 635.07 68.88L616.19 69.04L611.71 100.08ZM706.21 162H681.73L697.25 51.6H721.73L706.21 162ZM774.369 49.52C799.649 49.52 809.729 57.52 808.129 76.08C807.169 87.92 801.569 102.16 787.809 103.6L787.649 104.24C801.089 106.32 806.209 115.44 803.969 130.96C801.249 150.96 788.929 163.6 758.849 164.08C748.929 164.4 736.929 163.12 724.609 161.2L726.849 143.28C739.489 143.92 746.849 144.56 756.289 144.08C772.769 143.28 778.529 136.4 780.129 127.28C781.729 118.16 778.849 113.04 766.529 112.88L744.929 112.56L747.169 96.24H768.129C781.249 96.24 784.129 89.68 785.089 80.56C785.889 71.92 784.129 69.36 769.889 69.36C760.769 69.36 748.769 69.68 740.769 70L740.609 52.4C753.409 50.32 765.729 49.52 774.369 49.52ZM872.864 50.16C908.224 50.16 921.664 63.44 915.424 107.76C908.704 155.44 894.944 163.44 859.584 163.44C845.984 163.44 830.944 162.8 817.824 162L833.344 51.6C844.864 50.8 861.184 50.16 872.864 50.16ZM889.824 105.84C894.304 74.8 890.784 69.2 872.064 69.2L855.104 69.36L844.704 144.08C849.824 144.24 855.104 144.24 859.264 144.24C878.304 144.24 885.344 138.96 889.824 105.84Z" fill="#FF2E63"/>
</g>
<defs>
<clipPath id="clip0_77_2">
<rect width="922" height="227" fill="white"/>
</clipPath>
</defs>
</svg>
