<?xml version="1.0" encoding="utf-8" standalone="no"?>
<svg viewBox="0 0 395 512" version="1.1" xmlns="http://www.w3.org/2000/svg" xmlns:xlink="http://www.w3.org/1999/xlink" stroke-linecap="round" stroke-linejoin="round" fill-rule="evenodd" xml:space="preserve" >
<g fill="none" stroke="rgb(0,0,0)" stroke-width="0.64" >
<polygon points="169.154,269.363 169.154,378.163 169.154,378.265 169.152,378.454 169.148,378.643 169.142,378.832 169.135,379.021 169.125,379.21 169.114,379.398 169.1,379.587 169.085,379.775 169.068,379.963 169.049,380.151 169.028,380.339 169.006,380.527 168.981,380.714 168.955,380.901 168.926,381.088 168.896,381.275 168.864,381.461 168.83,381.647 168.794,381.832 168.757,382.018 168.717,382.202 168.676,382.387 168.633,382.571 168.588,382.754 168.541,382.937 168.492,383.12 168.442,383.302 168.39,383.484 168.336,383.665 168.28,383.845 168.222,384.025 168.162,384.205 168.101,384.383 168.038,384.561 167.973,384.739 167.907,384.916 167.838,385.092 167.768,385.267 167.696,385.442 167.622,385.616 167.547,385.789 167.47,385.962 167.391,386.134 167.31,386.305 167.228,386.475 167.144,386.644 167.059,386.813 166.971,386.98 166.882,387.147 166.792,387.313 166.699,387.478 166.605,387.641 166.51,387.805 166.412,387.967 166.314,388.128 166.213,388.288 166.111,388.447 166.007,388.605 165.902,388.762 165.796,388.918 165.687,389.073 165.577,389.226 165.466,389.379 165.353,389.53 165.239,389.681 165.123,389.83 165.005,389.978 164.886,390.125 164.766,390.271 164.644,390.415 164.521,390.559 164.396,390.701 164.27,390.841 164.143,390.981 164.014,391.119 163.884,391.256 163.752,391.392 163.619,391.526 163.536,391.608 163.401,391.741 163.265,391.871 163.127,392.001 162.988,392.129 162.847,392.255 162.706,392.381 162.563,392.504 162.419,392.627 162.274,392.748 162.127,392.867 161.98,392.985 161.831,393.101 161.681,393.216 161.53,393.33 161.378,393.442 161.224,393.552 161.07,393.661 160.914,393.769 160.758,393.874 160.6,393.979 160.442,394.081 160.282,394.182 160.121,394.282 159.96,394.38 159.797,394.476 159.633,394.57 159.469,394.663 159.303,394.755 159.137,394.844 158.97,394.932 158.802,395.019 158.633,395.103 158.463,395.186 158.292,395.267 158.121,395.347 157.948,395.425 157.775,395.501 157.602,395.575 157.427,395.648 157.252,395.718 157.076,395.787 156.9,395.855 156.722,395.92 156.544,395.984 156.366,396.046 156.187,396.106 156.007,396.165 155.827,396.221 155.646,396.276 155.464,396.329 155.283,396.38 155.1,396.43 154.917,396.477 154.734,396.523 154.55,396.567 154.366,396.609 154.181,396.649 153.996,396.687 153.811,396.724 153.625,396.758 153.439,396.791 153.252,396.822 153.066,396.851 152.879,396.878 152.691,396.903 152.504,396.927 152.316,396.948 152.128,396.968 151.94,396.986 151.752,397.002 151.563,397.016 151.375,397.028 151.186,397.038 150.997,397.046 150.808,397.053 150.619,397.057 150.43,397.06 150.241,397.061 150.052,397.06 149.863,397.057 149.675,397.052 149.486,397.045 149.297,397.037 149.108,397.026 148.92,397.014 148.731,396.999 148.543,396.983 148.355,396.965 148.167,396.945 147.979,396.923 147.792,396.899 147.605,396.874 147.418,396.846 147.231,396.817 147.044,396.786 146.858,396.753 146.673,396.718 146.487,396.681 146.302,396.643 146.118,396.602 145.934,396.56 145.75,396.516 145.567,396.47 145.384,396.422 145.201,396.372 145.02,396.321 144.838,396.267 144.657,396.212 144.477,396.155 144.298,396.097 144.119,396.036 143.94,395.974 143.762,395.91 143.585,395.844 143.409,395.777 143.233,395.707 143.058,395.636 142.884,395.563 142.71,395.489 142.537,395.412 142.365,395.334 142.194,395.254 142.023,395.173 141.853,395.09 141.685,395.005 141.517,394.918 141.349,394.83 141.183,394.74 141.018,394.649 140.854,394.555 140.69,394.461 140.528,394.364 140.366,394.266 140.206,394.166 140.046,394.065 139.888,393.962 139.73,393.858 139.574,393.752 139.418,393.644 139.264,393.535 139.111,393.424 138.959,393.312 138.808,393.198 138.658,393.083 138.509,392.966 138.362,392.848 138.216,392.728 138.071,392.607 137.927,392.485 137.784,392.361 137.643,392.235 137.503,392.108 137.364,391.98 137.227,391.851 137.09,391.72 136.955,391.587 136.822,391.454 136.69,391.319 136.559,391.182 136.429,391.045 136.301,390.906 136.174,390.765 136.049,390.624 135.925,390.481 135.803,390.337 135.682,390.192 135.562,390.046 135.444,389.898 135.327,389.75 135.212,389.6 135.099,389.449 134.987,389.297 134.876,389.143 134.767,388.989 134.66,388.834 134.554,388.677 134.449,388.52 134.347,388.361 134.245,388.201 134.146,388.041 134.048,387.879 133.951,387.717 133.857,387.553 133.764,387.389 133.672,387.223 133.582,387.057 133.494,386.89 133.408,386.722 133.323,386.553 133.24,386.383 133.159,386.212 133.079,386.041 133.001,385.869 132.925,385.696 132.851,385.522 132.778,385.348 132.707,385.173 132.638,384.997 132.57,384.82 132.505,384.643 132.441,384.465 132.378,384.287 132.318,384.108 132.26,383.928 132.203,383.748 132.148,383.567 132.095,383.386 132.043,383.204 131.994,383.021 131.946,382.839 131.9,382.655 131.856,382.471 131.814,382.287 131.774,382.103 131.736,381.918 131.699,381.732 131.664,381.546 131.631,381.36 131.6,381.174 131.571,380.987 131.544,380.8 131.518,380.613 131.495,380.426 131.473,380.238 131.453,380.05 131.435,379.862 131.419,379.673 131.405,379.485 131.393,379.296 131.382,379.108 131.374,378.919 131.367,378.73 131.363,378.541 131.36,378.352 131.359,378.163 131.359,155.977 131.359,155.962 131.36,155.773 131.363,155.584 131.368,155.395 131.375,155.206 131.383,155.017 131.394,154.829 131.406,154.64 131.42,154.452 131.437,154.263 131.455,154.075 131.475,153.887 131.497,153.7 131.52,153.512 131.546,153.325 131.573,153.138 131.603,152.951 131.634,152.765 131.667,152.579 131.702,152.393 131.739,152.208 131.777,152.023 131.818,151.838 131.86,151.654 131.904,151.47 131.95,151.287 131.998,151.104 132.047,150.922 132.099,150.74 132.152,150.559 132.207,150.378 132.264,150.198 132.323,150.018 132.383,149.839 132.446,149.661 132.51,149.483 132.576,149.306 132.643,149.129 132.712,148.953 132.784,148.778 132.856,148.604 132.931,148.43 133.007,148.257 133.085,148.085 133.165,147.914 133.247,147.744 133.33,147.574 133.415,147.405 133.501,147.237 133.59,147.07 133.679,146.904 133.771,146.738 133.864,146.574 133.959,146.411 134.056,146.248 134.154,146.087 134.253,145.926 134.355,145.766 134.458,145.608 134.562,145.451 134.668,145.294 134.776,145.139 134.885,144.984 134.996,144.831 135.108,144.679 135.221,144.528 135.337,144.379 135.453,144.23 135.572,144.083 135.691,143.936 135.812,143.791 135.935,143.647 136.059,143.505 136.184,143.363 136.311,143.223 136.44,143.085 136.569,142.947 136.7,142.811 136.832,142.676 136.966,142.542 137.101,142.41 137.237,142.279 137.375,142.15 137.514,142.022 137.654,141.895 137.796,141.77 137.938,141.646 138.082,141.523 138.227,141.402 138.374,141.283 138.521,141.165 138.67,141.048 138.82,140.933 138.971,140.819 139.123,140.707 139.276,140.597 139.431,140.488 139.586,140.38 139.743,140.274 139.9,140.17 140.059,140.067 140.218,139.966 140.379,139.866 140.541,139.768 140.703,139.672 140.867,139.577 141.031,139.484 141.196,139.393 141.363,139.303 141.53,139.215 141.698,139.128 141.867,139.044 142.037,138.961 142.207,138.879 142.379,138.8 142.551,138.722 142.724,138.646 142.897,138.571 143.072,138.498 143.247,138.427 143.423,138.358 143.599,138.291 143.776,138.225 143.954,138.161 144.133,138.099 144.312,138.039 144.492,137.98 144.672,137.923 144.853,137.868 145.034,137.815 145.216,137.764 145.398,137.714 145.581,137.667 145.764,137.621 145.948,137.577 146.132,137.535 146.317,137.494 146.502,137.456 146.687,137.419 146.873,137.385 147.059,137.352 147.246,137.321 147.432,137.291 147.619,137.264 147.807,137.239 147.994,137.215 148.182,137.193 148.37,137.174 148.558,137.156 148.746,137.14 148.935,137.126 149.123,137.113 149.312,137.103 149.501,137.094 149.69,137.088 149.879,137.083 150.067,137.08 150.256,137.079 206.949,137.079 207.04,137.079 207.607,137.083 208.173,137.092 208.74,137.108 209.307,137.128 209.873,137.155 210.439,137.187 211.005,137.225 211.57,137.268 212.135,137.317 212.699,137.372 213.263,137.432 213.826,137.498 214.388,137.569 214.95,137.647 215.511,137.729 216.071,137.818 216.63,137.912 217.188,138.011 217.745,138.117 218.301,138.227 218.856,138.344 219.41,138.466 219.962,138.593 220.513,138.726 221.063,138.864 221.611,139.008 222.158,139.157 222.704,139.312 223.247,139.472 223.79,139.638 224.33,139.809 224.869,139.986 225.406,140.168 225.941,140.355 226.474,140.547 227.005,140.745 227.535,140.949 228.062,141.157 228.587,141.371 229.11,141.59 229.63,141.814 230.149,142.043 230.665,142.278 231.179,142.518 231.69,142.763 232.199,143.013 232.705,143.268 233.209,143.528 233.71,143.793 234.209,144.063 234.704,144.338 235.197,144.618 235.687,144.903 236.175,145.193 236.659,145.487 237.14,145.787 237.619,146.091 238.094,146.4 238.566,146.714 239.035,147.033 239.501,147.356 239.963,147.684 240.423,148.016 240.878,148.353 241.331,148.695 241.78,149.041 242.226,149.391 242.668,149.746 243.106,150.106 243.541,150.469 243.972,150.837 244.4,151.21 244.823,151.586 245.243,151.967 245.659,152.352 246.072,152.741 246.48,153.135 246.884,153.532 247.285,153.933 247.681,154.339 248.074,154.748 248.462,155.161 248.846,155.578 249.226,155.999 249.601,156.424 249.973,156.852 250.34,157.284 250.702,157.72 251.061,158.159 251.415,158.602 251.764,159.048 252.109,159.498 252.449,159.952 252.785,160.408 253.117,160.868 253.443,161.332 253.766,161.798 254.083,162.268 254.396,162.741 254.704,163.217 255.007,163.696 255.305,164.178 255.599,164.663 255.887,165.151 256.171,165.642 256.45,166.135 256.724,166.632 256.993,167.131 257.257,167.633 257.515,168.137 257.769,168.644 258.018,169.153 258.262,169.665 258.5,170.18 258.733,170.696 258.962,171.215 259.185,171.737 259.402,172.26 259.615,172.786 259.822,173.313 260.024,173.843 260.221,174.375 260.412,174.908 260.598,175.444 260.778,175.981 260.954,176.521 261.124,177.061 261.288,177.604 261.447,178.148 261.6,178.694 261.748,179.241 261.891,179.79 262.028,180.34 262.16,180.891 262.286,181.444 262.406,181.998 262.521,182.553 262.631,183.11 262.734,183.667 262.833,184.225 262.925,184.785 263.012,185.345 263.094,185.906 263.17,186.468 263.24,187.03 263.305,187.593 263.364,188.157 263.417,188.722 263.465,189.287 263.507,189.852 263.543,190.418 263.574,190.984 263.599,191.55 263.618,192.117 263.632,192.684 263.64,193.25 263.642,193.817 263.639,194.384 263.63,194.951 263.615,195.518 263.595,196.084 263.569,196.651 263.538,197.217 263.5,197.782 263.457,198.348 263.409,198.913 263.355,199.477 263.295,200.041 263.229,200.604 263.158,201.166 263.081,201.728 262.999,202.289 262.911,202.849 262.817,203.408 262.718,203.966 262.614,204.523 262.503,205.08 262.387,205.635 262.266,206.188 262.139,206.741 262.007,207.292 261.869,207.842 261.725,208.39 261.576,208.937 261.422,209.483 261.262,210.027 261.097,210.569 260.926,211.11 260.75,211.649 260.569,212.186 260.382,212.721 260.19,213.254 259.992,213.786 259.789,214.315 259.581,214.843 259.368,215.368 259.149,215.891 258.926,216.412 258.697,216.931 258.462,217.447 258.223,217.961 257.979,218.472 257.729,218.981 257.475,219.488 257.215,219.992 256.95,220.493 256.68,220.992 256.406,221.488 256.126,221.981 255.842,222.471 255.552,222.959 255.258,223.443 254.959,223.925 254.655,224.404 254.346,224.879 254.033,225.351 253.715,225.821 253.392,226.287 253.064,226.75 252.732,227.209 252.396,227.665 252.054,228.118 251.709,228.567 251.358,229.013 251.004,229.455 250.645,229.894 250.281,230.329 249.914,230.761 249.542,231.189 249.165,231.613 248.785,232.033 248.4,232.449 248.011,232.862 247.618,233.271 247.221,233.675 246.82,234.076 246.415,234.473 246.006,234.865 245.593,235.254 245.177,235.638 244.756,236.018 244.332,236.394 243.904,236.766 243.472,237.133 243.037,237.496 242.597,237.855 242.155,238.209 241.709,238.559 241.259,238.905 240.806,239.245 240.35,239.582 239.89,239.913 239.427,240.24 238.961,240.563 238.491,240.881 238.018,241.194 237.543,241.502 237.064,241.806 236.582,242.104 236.097,242.398 235.61,242.687 235.119,242.971 234.626,243.251 234.129,243.525 233.631,243.794 233.129,244.059 232.625,244.318 232.118,244.572 231.609,244.821 231.097,245.065 230.583,245.304 230.066,245.538 229.548,245.766 229.027,245.99 228.503,246.208 227.978,246.421 227.45,246.629 226.921,246.831 226.389,247.028 225.856,247.22 225.32,247.406 224.783,247.587 224.244,247.763 223.703,247.933 223.161,248.098 222.617,248.257 222.071,248.411 221.524,248.56 220.975,248.703 220.425,248.84 219.874,248.972 219.321,249.099 218.768,249.22 218.213,249.335 217.656,249.445 217.099,249.549 216.541,249.648 215.982,249.741 215.421,249.829 214.86,249.91 214.299,249.987 213.736,250.057 213.173,250.122 212.609,250.182 212.045,250.236 211.48,250.284 210.915,250.326 210.349,250.363 209.783,250.394 209.216,250.42 208.65,250.44 208.083,250.454 207.516,250.462 206.949,250.465 188.052,250.465 187.863,250.466 187.674,250.469 187.485,250.474 187.296,250.48 187.107,250.489 186.919,250.499 186.73,250.511 186.542,250.526 186.353,250.542 186.165,250.56 185.977,250.579 185.789,250.601 185.602,250.625 185.415,250.65 185.228,250.677 185.041,250.706 184.855,250.738 184.668,250.77 184.483,250.805 184.297,250.842 184.112,250.88 183.928,250.921 183.743,250.963 183.56,251.007 183.376,251.053 183.194,251.1 183.011,251.15 182.829,251.201 182.648,251.254 182.467,251.309 182.287,251.366 182.107,251.424 181.928,251.485 181.75,251.547 181.572,251.611 181.395,251.677 181.218,251.744 181.042,251.813 180.867,251.884 180.693,251.957 180.519,252.031 180.346,252.108 180.174,252.185 180.002,252.265 179.832,252.346 179.662,252.429 179.493,252.514 179.325,252.601 179.158,252.689 178.992,252.779 178.826,252.87 178.662,252.963 178.498,253.058 178.336,253.154 178.174,253.252 178.014,253.352 177.854,253.453 177.695,253.556 177.538,253.66 177.381,253.766 177.226,253.873 177.072,253.982 176.918,254.093 176.766,254.205 176.615,254.319 176.465,254.434 176.317,254.55 176.169,254.668 176.023,254.788 175.878,254.909 175.734,255.031 175.591,255.155 175.449,255.281 175.309,255.407 175.17,255.536 175.033,255.665 174.896,255.796 174.761,255.928 174.628,256.062 174.495,256.197 174.364,256.333 174.235,256.47 174.107,256.609 173.98,256.749 173.854,256.891 173.73,257.033 173.608,257.177 173.487,257.322 173.367,257.468 173.249,257.616 173.132,257.764 173.017,257.914 172.903,258.065 172.791,258.217 172.68,258.37 172.571,258.525 172.463,258.68 172.357,258.836 172.253,258.994 172.15,259.152 172.049,259.312 171.949,259.472 171.851,259.634 171.754,259.796 171.659,259.96 171.566,260.124 171.475,260.29 171.385,260.456 171.297,260.623 171.21,260.791 171.125,260.96 171.042,261.129 170.96,261.3 170.881,261.471 170.803,261.643 170.726,261.816 170.652,261.99 170.579,262.164 170.508,262.339 170.438,262.515 170.371,262.692 170.305,262.869 170.241,263.046 170.179,263.225 170.118,263.404 170.059,263.584 170.003,263.764 169.947,263.945 169.894,264.126 169.843,264.308 169.793,264.49 169.745,264.673 169.699,264.856 169.655,265.04 169.613,265.224 169.572,265.409 169.534,265.594 169.497,265.779 169.462,265.965 169.429,266.151 169.398,266.337 169.369,266.524 169.341,266.711 169.316,266.898 169.292,267.086 169.27,267.273 169.25,267.461 169.232,267.649 169.216,267.838 169.201,268.026 169.189,268.215 169.178,268.403 169.17,268.592 169.163,268.781 169.158,268.97 169.155,269.159 169.154,269.348 " />
<polygon points="201.414,407.181 125.824,482.772 125.813,482.782 125.679,482.915 125.543,483.047 125.406,483.177 125.268,483.306 125.128,483.433 124.987,483.559 124.845,483.684 124.702,483.807 124.557,483.928 124.411,484.049 124.264,484.167 124.116,484.285 123.967,484.4 123.816,484.515 123.665,484.628 123.512,484.739 123.358,484.849 123.203,484.957 123.047,485.063 122.89,485.168 122.732,485.272 122.573,485.374 122.413,485.474 122.252,485.573 122.089,485.67 121.926,485.765 121.762,485.859 121.597,485.951 121.432,486.042 121.265,486.131 121.097,486.218 120.929,486.304 120.759,486.387 120.589,486.47 120.418,486.55 120.246,486.629 120.074,486.706 119.9,486.781 119.726,486.854 119.551,486.926 119.376,486.996 119.2,487.065 119.023,487.131 118.845,487.196 118.667,487.259 118.488,487.32 118.309,487.379 118.129,487.437 117.948,487.493 117.767,487.547 117.586,487.599 117.403,487.649 117.221,487.698 117.038,487.744 116.854,487.789 116.67,487.832 116.486,487.873 116.301,487.913 116.116,487.95 115.93,487.986 115.744,488.019 115.558,488.051 115.371,488.081 115.184,488.11 114.997,488.136 114.81,488.16 114.622,488.183 114.434,488.203 114.246,488.222 114.058,488.239 113.87,488.254 113.681,488.267 113.493,488.279 113.304,488.288 113.115,488.295 112.926,488.301 112.737,488.305 112.548,488.307 112.359,488.306 112.17,488.305 111.981,488.301 111.792,488.295 111.604,488.287 111.415,488.278 111.226,488.266 111.038,488.253 110.849,488.238 110.661,488.221 110.473,488.202 110.285,488.181 110.098,488.158 109.91,488.134 109.723,488.107 109.536,488.079 109.35,488.049 109.164,488.017 108.978,487.983 108.792,487.947 108.607,487.91 108.422,487.87 108.238,487.829 108.054,487.786 107.87,487.741 107.687,487.694 107.504,487.645 107.322,487.595 107.141,487.542 106.96,487.488 106.779,487.432 106.599,487.375 106.42,487.315 106.241,487.254 106.063,487.191 105.885,487.126 105.709,487.059 105.532,486.991 105.357,486.921 105.182,486.849 105.008,486.775 104.835,486.7 104.662,486.622 104.491,486.544 104.32,486.463 104.15,486.381 103.98,486.297 103.812,486.211 103.644,486.124 103.478,486.035 103.312,485.944 103.147,485.852 102.983,485.758 102.82,485.662 102.658,485.565 102.497,485.466 102.337,485.366 102.178,485.264 102.02,485.16 101.863,485.055 101.707,484.948 101.552,484.84 101.398,484.73 101.245,484.619 101.094,484.506 100.944,484.391 100.794,484.275 100.646,484.158 100.499,484.039 100.354,483.919 100.209,483.797 100.066,483.674 99.9239,483.549 99.7831,483.423 99.6436,483.295 99.5054,483.167 99.3684,483.036 99.2328,482.905 99.0985,482.772 23.508,407.181 23.436,407.109 23.3038,406.974 23.1729,406.838 23.0434,406.7 22.9153,406.561 22.7886,406.421 22.6633,406.279 22.5394,406.137 22.4169,405.993 22.2959,405.848 22.1763,405.701 22.0583,405.554 21.9416,405.405 21.8265,405.255 21.7129,405.104 21.6008,404.952 21.4902,404.799 21.3812,404.644 21.2737,404.489 21.1678,404.332 21.0635,404.175 20.9607,404.016 20.8595,403.857 20.7599,403.696 20.662,403.535 20.5656,403.372 20.4709,403.208 20.3778,403.044 20.2864,402.879 20.1966,402.712 20.1085,402.545 20.0221,402.377 19.9374,402.208 19.8543,402.038 19.773,401.868 19.6933,401.696 19.6154,401.524 19.5392,401.351 19.4648,401.178 19.392,401.003 19.3211,400.828 19.2518,400.652 19.1844,400.476 19.1187,400.299 19.0548,400.121 18.9927,399.942 18.9323,399.763 18.8738,399.583 18.817,399.403 18.7621,399.222 18.709,399.041 18.6576,398.859 18.6081,398.677 18.5605,398.494 18.5146,398.311 18.4706,398.127 18.4285,397.943 18.3882,397.758 18.3497,397.573 18.3131,397.388 18.2783,397.202 18.2454,397.016 18.2144,396.829 18.1852,396.643 18.1579,396.456 18.1325,396.268 18.1089,396.081 18.0872,395.893 18.0674,395.705 18.0495,395.517 18.0334,395.329 18.0193,395.14 18.007,394.952 17.9966,394.763 17.9881,394.574 17.9815,394.385 17.9768,394.196 17.9739,394.008 17.973,393.819 17.973,42.5911 17.973,42.576 17.9741,42.3871 17.9771,42.1981 17.982,42.0092 17.9887,41.8204 17.9974,41.6316 18.0079,41.4429 18.0203,41.2543 18.0346,41.0659 18.0508,40.8776 18.0689,40.6895 18.0889,40.5016 18.1107,40.3139 18.1344,40.1264 18.16,39.9392 18.1874,39.7522 18.2168,39.5655 18.248,39.3791 18.281,39.1931 18.3159,39.0073 18.3527,38.822 18.3913,38.637 18.4318,38.4524 18.4741,38.2682 18.5182,38.0845 18.5642,37.9012 18.612,37.7183 18.6617,37.536 18.7131,37.3542 18.7664,37.1729 18.8215,36.9921 18.8784,36.8119 18.9371,36.6322 18.9975,36.4532 19.0598,36.2748 19.1239,36.097 19.1897,35.9199 19.2573,35.7434 19.3266,35.5676 19.3978,35.3925 19.4706,35.2181 19.5452,35.0445 19.6215,34.8716 19.6996,34.6995 19.7794,34.5282 19.8609,34.3577 19.944,34.188 20.0289,34.0192 20.1155,33.8512 20.2037,33.6841 20.2936,33.5179 20.3852,33.3526 20.4784,33.1882 20.5732,33.0247 20.6697,32.8622 20.7678,32.7007 20.8675,32.5402 20.9688,32.3807 21.0717,32.2222 21.1762,32.0647 21.2822,31.9083 21.3898,31.7529 21.499,31.5987 21.6097,31.4455 21.7219,31.2934 21.8356,31.1425 21.9509,30.9927 22.0676,30.8441 22.1858,30.6967 22.3055,30.5504 22.4266,30.4054 22.5492,30.2616 22.6732,30.119 22.7986,29.9776 22.9255,29.8375 23.0537,29.6987 23.1833,29.5612 23.3143,29.425 23.4466,29.2901 23.5803,29.1565 23.7153,29.0243 23.8516,28.8934 23.9893,28.7639 24.1282,28.6358 24.2684,28.5091 24.4098,28.3837 24.5525,28.2598 24.6964,28.1374 24.8416,28.0164 24.9879,27.8968 25.1355,27.7787 25.2842,27.6621 25.434,27.547 25.585,27.4334 25.7372,27.3213 25.8904,27.2107 26.0448,27.1017 26.2002,26.9942 26.3567,26.8883 26.5143,26.7839 26.6729,26.6812 26.8325,26.58 26.9931,26.4804 27.1547,26.3824 27.3172,26.2861 27.4808,26.1914 27.6452,26.0983 27.8106,26.0069 27.9769,25.9171 28.1441,25.829 28.3121,25.7426 28.4811,25.6578 28.6508,25.5748 28.8214,25.4934 28.9928,25.4138 29.1649,25.3359 29.3379,25.2597 29.5115,25.1852 29.686,25.1125 29.8611,25.0415 30.037,24.9723 30.2135,24.9049 30.3907,24.8392 30.5685,24.7753 30.747,24.7131 30.9261,24.6528 31.1057,24.5942 31.286,24.5375 31.4668,24.4825 31.6482,24.4294 31.83,24.3781 32.0124,24.3286 32.1953,24.2809 32.3786,24.2351 32.5624,24.1911 32.7466,24.1489 32.9312,24.1086 33.1162,24.0702 33.3016,24.0335 33.4874,23.9988 33.6735,23.9659 33.8599,23.9348 34.0466,23.9057 34.2336,23.8784 34.4209,23.8529 34.6084,23.8294 34.7961,23.8077 34.984,23.7879 35.1721,23.7699 35.3604,23.7539 35.5489,23.7397 35.7375,23.7275 35.9261,23.7171 36.1149,23.7086 36.3038,23.702 36.4927,23.6972 36.6817,23.6944 36.8706,23.6935 206.949,23.6935 208.173,23.6979 209.874,23.7186 211.574,23.7563 213.274,23.8111 214.973,23.8828 216.672,23.9716 218.369,24.0773 220.066,24.2 221.761,24.3396 223.454,24.4962 225.146,24.6697 226.836,24.8601 228.524,25.0674 230.21,25.2916 231.894,25.5326 233.575,25.7905 235.254,26.0652 236.929,26.3566 238.602,26.6647 240.271,26.9896 241.937,27.3312 243.6,27.6894 245.259,28.0642 246.914,28.4555 248.565,28.8634 250.212,29.2878 251.855,29.7287 253.493,30.1859 255.127,30.6595 256.755,31.1495 258.379,31.6557 259.998,32.178 261.611,32.7166 263.219,33.2713 264.821,33.842 266.417,34.4287 268.008,35.0313 269.592,35.6498 271.17,36.2841 272.742,36.9342 274.307,37.6 275.865,38.2813 277.416,38.9782 278.961,39.6906 280.498,40.4184 282.028,41.1616 283.55,41.92 285.065,42.6936 286.572,43.4823 288.071,44.286 289.561,45.1047 291.044,45.9382 292.518,46.7865 293.984,47.6496 295.44,48.5272 296.888,49.4193 298.327,50.3259 299.757,51.2469 301.178,52.1821 302.589,53.1314 303.991,54.0948 305.383,55.0722 306.765,56.0635 308.137,57.0685 309.499,58.0872 310.85,59.1194 312.192,60.1652 313.522,61.2242 314.843,62.2966 316.152,63.3821 317.45,64.4806 318.738,65.5921 320.014,66.7163 321.279,67.8533 322.532,69.0029 323.774,70.1649 325.004,71.3393 326.223,72.526 327.429,73.7248 328.624,74.9355 329.806,76.1582 330.976,77.3926 332.133,78.6387 333.279,79.8963 334.411,81.1652 335.531,82.4455 336.637,83.7368 337.731,85.0392 338.812,86.3524 339.88,87.6764 340.934,89.011 341.975,90.356 343.002,91.7114 344.016,93.077 345.016,94.4527 346.002,95.8383 346.975,97.2337 347.933,98.6388 348.877,100.053 349.807,101.477 350.723,102.91 351.625,104.353 352.512,105.804 353.384,107.264 354.242,108.733 355.085,110.21 355.913,111.695 356.726,113.189 357.525,114.691 358.308,116.2 359.076,117.718 359.829,119.243 360.567,120.775 361.289,122.315 361.996,123.862 362.687,125.416 363.363,126.977 364.023,128.544 364.667,130.118 365.296,131.699 365.909,133.285 366.506,134.878 367.087,136.476 367.652,138.08 368.2,139.69 368.733,141.305 369.25,142.926 369.75,144.551 370.234,146.182 370.702,147.817 371.153,149.457 371.588,151.101 372.007,152.749 372.409,154.402 372.794,156.059 373.163,157.719 373.515,159.383 373.851,161.05 374.17,162.721 374.472,164.395 374.757,166.071 375.026,167.751 375.278,169.433 375.512,171.117 375.731,172.804 375.932,174.493 376.116,176.183 376.284,177.876 376.434,179.57 376.568,181.266 376.684,182.962 376.784,184.66 376.866,186.359 376.932,188.059 376.981,189.759 377.012,191.459 377.027,193.16 377.025,194.861 377.005,196.561 376.969,198.262 376.915,199.962 376.845,201.661 376.758,203.359 376.653,205.057 376.532,206.753 376.394,208.449 376.238,210.142 376.066,211.834 375.877,213.525 375.671,215.213 375.448,216.899 375.209,218.583 374.952,220.264 374.679,221.943 374.389,223.619 374.082,225.292 373.758,226.961 373.418,228.628 373.061,230.291 372.688,231.95 372.298,233.605 371.891,235.257 371.468,236.904 371.029,238.547 370.573,240.186 370.1,241.819 369.612,243.449 369.107,245.073 368.586,246.692 368.048,248.305 367.495,249.914 366.926,251.516 366.34,253.113 365.739,254.704 365.122,256.289 364.489,257.867 363.84,259.44 363.175,261.005 362.495,262.564 361.799,264.116 361.088,265.661 360.362,267.199 359.62,268.729 358.863,270.252 358.09,271.767 357.303,273.275 356.5,274.774 355.683,276.266 354.85,277.749 354.003,279.224 353.141,280.69 352.265,282.148 351.374,283.596 350.468,285.036 349.549,286.467 348.614,287.888 347.666,289.3 346.704,290.702 345.728,292.095 344.738,293.478 343.734,294.851 342.716,296.213 341.685,297.566 340.64,298.908 339.582,300.24 338.511,301.561 337.426,302.871 336.329,304.17 335.218,305.458 334.095,306.735 332.959,308.001 331.811,309.256 330.65,310.498 329.476,311.73 328.291,312.949 327.093,314.156 325.883,315.352 324.661,316.535 323.428,317.706 322.183,318.865 320.926,320.011 319.658,321.144 318.378,322.265 317.088,323.373 315.786,324.467 314.474,325.549 313.151,326.618 311.817,327.673 310.473,328.715 309.118,329.744 307.754,330.759 306.379,331.76 304.994,332.747 303.599,333.721 302.195,334.68 300.781,335.626 299.358,336.557 297.926,337.474 296.484,338.376 295.034,339.264 293.574,340.138 292.106,340.997 290.63,341.841 289.145,342.67 287.652,343.485 286.151,344.284 284.642,345.069 283.125,345.838 281.6,346.592 280.068,347.331 278.529,348.055 276.983,348.763 275.43,349.455 273.869,350.132 272.302,350.794 270.729,351.439 270.638,351.476 270.462,351.545 270.285,351.612 270.108,351.678 269.93,351.742 269.752,351.804 269.573,351.864 269.393,351.922 269.213,351.979 269.032,352.034 268.85,352.087 268.668,352.138 268.486,352.187 268.303,352.235 268.12,352.28 267.936,352.324 267.752,352.366 267.567,352.406 267.382,352.445 267.196,352.481 267.011,352.516 266.825,352.549 266.638,352.579 266.451,352.609 266.264,352.636 266.077,352.661 265.89,352.684 265.702,352.706 265.514,352.726 265.326,352.743 265.137,352.759 264.949,352.773 264.76,352.785 264.572,352.796 264.383,352.804 264.194,352.81 264.005,352.815 263.816,352.818 263.627,352.818 263.438,352.817 263.249,352.814 263.06,352.81 262.872,352.803 262.683,352.794 262.494,352.784 262.306,352.771 262.117,352.757 261.929,352.741 261.741,352.723 261.553,352.703 261.365,352.681 261.178,352.657 260.99,352.631 260.803,352.604 260.617,352.575 260.43,352.544 260.244,352.51 260.059,352.476 259.873,352.439 259.688,352.4 259.504,352.36 259.319,352.317 259.136,352.273 258.952,352.227 258.77,352.179 258.587,352.13 258.405,352.078 258.224,352.025 258.043,351.97 257.863,351.913 257.683,351.854 257.504,351.794 257.326,351.732 257.148,351.668 256.971,351.602 256.795,351.534 256.619,351.465 256.444,351.394 256.269,351.321 256.096,351.246 255.923,351.17 255.751,351.092 255.579,351.012 255.409,350.931 255.239,350.847 255.07,350.763 254.902,350.676 254.735,350.588 254.569,350.498 254.404,350.406 254.239,350.313 254.076,350.218 253.913,350.122 253.752,350.024 253.591,349.924 253.432,349.823 253.273,349.72 253.116,349.615 252.959,349.509 252.804,349.402 252.65,349.292 252.497,349.182 252.345,349.07 252.194,348.956 252.044,348.841 251.895,348.724 251.748,348.606 251.602,348.486 251.457,348.365 251.313,348.242 251.17,348.118 251.029,347.993 250.889,347.866 250.75,347.738 250.612,347.608 250.476,347.477 250.341,347.345 250.208,347.211 250.075,347.076 249.945,346.94 249.815,346.802 249.687,346.663 249.56,346.523 249.435,346.382 249.311,346.239 249.189,346.095 249.068,345.95 248.948,345.804 248.83,345.656 248.713,345.507 248.598,345.357 248.485,345.206 248.372,345.054 248.262,344.901 248.153,344.747 248.045,344.591 247.939,344.435 247.835,344.277 247.732,344.119 247.631,343.959 247.532,343.798 247.434,343.637 247.337,343.474 247.243,343.311 247.149,343.146 247.058,342.981 246.968,342.815 246.88,342.647 246.794,342.479 246.709,342.31 246.626,342.141 246.545,341.97 246.465,341.799 246.387,341.627 246.311,341.454 246.236,341.28 246.164,341.105 246.093,340.93 246.023,340.755 245.956,340.578 245.89,340.401 245.826,340.223 245.764,340.044 245.704,339.865 245.645,339.686 245.589,339.505 245.534,339.325 245.481,339.143 245.429,338.961 245.38,338.779 245.332,338.596 245.286,338.413 245.242,338.229 245.2,338.045 245.16,337.86 245.121,337.675 245.085,337.49 245.05,337.304 245.017,337.118 244.986,336.932 244.957,336.745 244.93,336.558 244.904,336.371 244.881,336.183 244.859,335.995 244.839,335.807 244.821,335.619 244.805,335.431 244.791,335.243 244.779,335.054 244.768,334.865 244.76,334.677 244.753,334.488 244.748,334.299 244.746,334.11 244.745,333.921 244.745,333.8 244.747,333.611 244.751,333.422 244.757,333.233 244.765,333.044 244.775,332.856 244.786,332.667 244.8,332.478 244.815,332.29 244.832,332.102 244.852,331.914 244.873,331.726 244.895,331.539 244.92,331.351 244.947,331.164 244.975,330.977 245.006,330.791 245.038,330.605 245.072,330.419 245.108,330.233 245.146,330.048 245.185,329.863 245.227,329.679 245.27,329.495 245.315,329.311 245.362,329.128 245.411,328.946 245.462,328.764 245.514,328.582 245.569,328.401 245.625,328.221 245.683,328.041 245.742,327.862 245.804,327.683 245.867,327.505 245.932,327.327 245.999,327.151 246.068,326.975 246.138,326.799 246.21,326.624 246.284,326.451 246.359,326.277 246.437,326.105 246.516,325.933 246.596,325.762 246.679,325.592 246.763,325.423 246.849,325.255 246.936,325.087 247.026,324.921 247.116,324.755 247.209,324.59 247.303,324.426 247.399,324.263 247.496,324.101 247.595,323.94 247.696,323.78 247.798,323.621 247.902,323.464 248.007,323.307 248.114,323.151 248.222,322.996 248.332,322.842 248.444,322.69 248.557,322.538 248.672,322.388 248.788,322.239 248.905,322.091 249.024,321.944 249.145,321.799 249.267,321.654 249.39,321.511 249.515,321.369 249.641,321.229 249.769,321.089 249.898,320.951 250.028,320.814 250.16,320.679 250.293,320.545 250.427,320.412 250.563,320.281 250.7,320.15 250.839,320.022 250.978,319.894 251.119,319.768 251.261,319.644 251.405,319.521 251.549,319.399 251.695,319.279 251.842,319.16 251.99,319.043 252.14,318.927 252.29,318.813 252.442,318.7 252.595,318.589 252.748,318.479 252.903,318.371 253.059,318.264 253.217,318.159 253.375,318.056 253.534,317.954 253.694,317.854 253.855,317.755 254.017,317.658 254.18,317.563 254.344,317.469 254.509,317.377 254.675,317.286 254.842,317.197 255.01,317.11 255.178,317.025 255.348,316.941 255.518,316.859 255.689,316.778 255.861,316.7 256.033,316.623 256.207,316.547 256.381,316.474 256.556,316.402 257.779,315.9 258.998,315.386 260.212,314.859 261.42,314.32 262.623,313.77 263.82,313.207 265.011,312.632 266.197,312.046 267.377,311.447 268.55,310.837 269.718,310.215 270.879,309.582 272.034,308.937 273.183,308.28 274.324,307.612 275.459,306.933 276.587,306.242 277.709,305.54 278.823,304.827 279.93,304.103 281.029,303.367 282.122,302.621 283.206,301.864 284.283,301.096 285.353,300.317 286.414,299.528 287.468,298.728 288.513,297.917 289.551,297.097 290.58,296.265 291.6,295.424 292.613,294.573 293.616,293.711 294.611,292.839 295.598,291.958 296.575,291.066 297.544,290.165 298.503,289.254 299.453,288.334 300.394,287.404 301.326,286.465 302.248,285.517 303.161,284.559 304.064,283.593 304.957,282.617 305.841,281.633 306.714,280.639 307.578,279.637 308.432,278.627 309.275,277.608 310.108,276.58 310.931,275.545 311.744,274.501 312.546,273.449 313.337,272.389 314.118,271.321 314.888,270.245 315.647,269.162 316.396,268.071 317.133,266.973 317.86,265.868 318.575,264.755 319.279,263.635 319.972,262.509 320.654,261.375 321.325,260.235 321.983,259.087 322.631,257.934 323.267,256.774 323.891,255.608 324.503,254.435 325.104,253.257 325.693,252.072 326.27,250.882 326.835,249.686 327.388,248.484 327.929,247.277 328.458,246.064 328.975,244.847 329.48,243.624 329.972,242.396 330.452,241.164 330.92,239.926 331.375,238.684 331.818,237.438 332.249,236.187 332.667,234.932 333.072,233.673 333.465,232.409 333.845,231.142 334.212,229.872 334.567,228.597 334.908,227.319 335.237,226.038 335.554,224.753 335.857,223.466 336.148,222.175 336.425,220.882 336.69,219.586 336.941,218.287 337.18,216.986 337.406,215.683 337.618,214.377 337.818,213.069 338.004,211.76 338.178,210.448 338.338,209.135 338.485,207.821 338.619,206.505 338.739,205.187 338.847,203.869 338.941,202.549 339.022,201.229 339.09,199.908 339.145,198.586 339.187,197.264 339.215,195.941 339.23,194.619 339.232,193.296 339.221,191.973 339.196,190.651 339.158,189.328 339.107,188.006 339.043,186.685 338.965,185.365 338.875,184.045 338.771,182.726 338.654,181.408 338.524,180.092 338.38,178.777 338.224,177.464 338.054,176.152 337.871,174.841 337.675,173.533 337.466,172.227 337.245,170.923 337.01,169.621 336.762,168.322 336.501,167.025 336.227,165.731 335.94,164.439 335.64,163.151 335.327,161.866 335.002,160.583 334.664,159.305 334.312,158.029 333.949,156.757 333.572,155.489 333.183,154.225 332.781,152.965 332.367,151.708 331.94,150.456 331.501,149.209 331.049,147.965 330.584,146.727 330.108,145.493 329.619,144.264 329.118,143.039 328.604,141.82 328.079,140.606 327.541,139.398 326.991,138.195 326.429,136.997 325.856,135.805 325.27,134.619 324.673,133.439 324.063,132.264 323.443,131.096 322.81,129.935 322.166,128.779 321.51,127.63 320.843,126.488 320.164,125.352 319.475,124.224 318.773,123.102 318.061,121.987 317.338,120.88 316.603,119.78 315.858,118.687 315.102,117.601 314.335,116.524 313.557,115.454 312.768,114.392 311.969,113.337 311.16,112.291 310.34,111.253 309.509,110.223 308.669,109.202 307.818,108.189 306.957,107.185 306.086,106.189 305.205,105.202 304.315,104.224 303.414,103.255 302.504,102.295 301.585,101.344 300.656,100.402 299.718,99.4696 298.77,98.5466 297.813,97.6332 296.847,96.7294 295.872,95.8353 294.888,94.951 293.896,94.0765 292.895,93.2121 291.885,92.3577 290.866,91.5134 289.84,90.6793 288.804,89.8556 287.761,89.0423 286.71,88.2394 285.651,87.4471 284.583,86.6654 283.509,85.8944 282.426,85.1342 281.336,84.3849 280.238,83.6465 279.133,82.9192 278.021,82.2029 276.902,81.4978 275.776,80.8039 274.643,80.1213 273.503,79.45 272.356,78.7902 271.203,78.1419 270.044,77.5052 268.878,76.88 267.706,76.2666 266.528,75.6649 265.344,75.0751 264.154,74.4971 262.958,73.931 261.757,73.3769 260.55,72.8348 259.338,72.3049 258.121,71.7871 256.899,71.2815 255.671,70.7881 254.439,70.3071 253.202,69.8383 251.96,69.382 250.714,68.9381 249.464,68.5067 248.209,68.0879 246.95,67.6815 245.687,67.2879 244.421,66.9068 243.15,66.5384 241.876,66.1828 240.598,65.8399 239.317,65.5098 238.033,65.1926 236.746,64.8882 235.455,64.5967 234.162,64.3181 232.866,64.0524 231.568,63.7997 230.267,63.56 228.964,63.3334 227.658,63.1198 226.351,62.9192 225.041,62.7317 223.73,62.5574 222.417,62.3961 221.102,62.248 219.787,62.1131 218.469,61.9913 217.151,61.8827 215.832,61.7873 214.511,61.705 213.19,61.636 211.869,61.5802 210.546,61.5376 209.224,61.5083 207.901,61.4922 206.949,61.4887 74.6659,61.4887 74.4769,61.4897 74.288,61.4925 74.0991,61.4972 73.9102,61.5038 73.7214,61.5123 73.5327,61.5227 73.3442,61.535 73.1557,61.5492 72.9674,61.5652 72.7793,61.5831 72.5914,61.6029 72.4036,61.6246 72.2161,61.6482 72.0289,61.6736 71.8419,61.7009 71.6552,61.7301 71.4688,61.7611 71.2827,61.794 71.0969,61.8288 70.9115,61.8654 70.7265,61.9039 70.5419,61.9442 70.3577,61.9864 70.1739,62.0304 69.9906,62.0762 69.8077,62.1239 69.6253,62.1734 69.4434,62.2247 69.2621,62.2778 69.0813,62.3328 68.901,62.3895 68.7213,62.4481 68.5423,62.5084 68.3638,62.5705 68.1859,62.6344 68.0088,62.7001 67.8322,62.7676 67.6564,62.8368 67.4812,62.9078 67.3068,62.9805 67.1331,63.055 66.9602,63.1311 66.788,63.2091 66.6167,63.2887 66.4461,63.37 66.2763,63.4531 66.1074,63.5378 65.9394,63.6243 65.7722,63.7124 65.6059,63.8021 65.4405,63.8936 65.276,63.9866 65.1125,64.0814 64.9499,64.1777 64.7884,64.2757 64.6277,64.3752 64.4681,64.4764 64.3095,64.5792 64.152,64.6836 63.9955,64.7895 63.8401,64.897 63.6857,65.006 63.5325,65.1166 63.3803,65.2287 63.2293,65.3423 63.0794,65.4574 62.9307,65.574 62.7832,65.6921 62.6369,65.8116 62.4917,65.9327 62.3478,66.0551 62.2051,66.179 62.0636,66.3043 61.9235,66.4311 61.7845,66.5592 61.6469,66.6887 61.5106,66.8196 61.3756,66.9518 61.2419,67.0854 61.1096,67.2203 60.9786,67.3565 60.849,67.494 60.7207,67.6328 60.5939,67.7729 60.4685,67.9142 60.3445,68.0568 60.2219,68.2007 60.1008,68.3457 59.9811,68.492 59.8629,68.6394 59.7461,68.788 59.6309,68.9378 59.5172,69.0887 59.405,69.2408 59.2943,69.3939 59.1851,69.5482 59.0775,69.7035 58.9715,69.86 58.867,70.0174 58.7641,70.1759 58.6628,70.3355 58.5631,70.496 58.465,70.6575 58.3685,70.82 58.2737,70.9835 58.1804,71.1478 58.0889,71.3132 57.999,71.4794 57.9108,71.6465 57.8242,71.8145 57.7393,71.9833 57.6561,72.153 57.5747,72.3235 57.4949,72.4948 57.4168,72.6669 57.3405,72.8398 57.2659,73.0134 57.193,73.1878 57.1219,73.3629 57.0526,73.5387 56.985,73.7151 56.9191,73.8923 56.8551,74.0701 56.7928,74.2485 56.7323,74.4275 56.6736,74.6072 56.6168,74.7874 56.5617,74.9681 56.5084,75.1494 56.4569,75.3313 56.4073,75.5136 56.3595,75.6964 56.3135,75.8797 56.2693,76.0635 56.227,76.2477 56.1866,76.4323 56.148,76.6172 56.1112,76.8026 56.0763,76.9883 56.0432,77.1744 56.012,77.3608 55.9827,77.5475 55.9553,77.7344 55.9297,77.9217 55.906,78.1092 55.8841,78.2969 55.8642,78.4848 55.8461,78.6729 55.8299,78.8612 55.8156,79.0496 55.8032,79.2382 55.7926,79.4269 55.784,79.6156 55.7772,79.8045 55.7724,79.9934 55.7694,80.1823 55.7683,80.3713 55.7683,80.3864 55.7683,378.163 55.7692,378.352 55.772,378.541 55.7768,378.73 55.7834,378.919 55.7919,379.108 55.8023,379.296 55.8145,379.485 55.8287,379.673 55.8448,379.862 55.8627,380.05 55.8825,380.238 55.9042,380.426 55.9277,380.613 55.9532,380.8 55.9805,380.987 56.0096,381.174 56.0407,381.36 56.0736,381.546 56.1083,381.732 56.145,381.918 56.1834,382.103 56.2237,382.287 56.2659,382.471 56.3099,382.655 56.3557,382.839 56.4034,383.021 56.4529,383.204 56.5042,383.386 56.5574,383.567 56.6123,383.748 56.6691,383.928 56.7276,384.108 56.7879,384.287 56.8501,384.465 56.914,384.643 56.9797,384.82 57.0471,384.997 57.1163,385.173 57.1873,385.348 57.26,385.522 57.3345,385.696 57.4107,385.869 57.4886,386.041 57.5682,386.212 57.6496,386.383 57.7326,386.553 57.8174,386.722 57.9038,386.89 57.9919,387.057 58.0817,387.223 58.1731,387.389 58.2662,387.553 58.3609,387.717 58.4572,387.879 58.5552,388.041 58.6548,388.201 58.756,388.361 58.8587,388.52 58.9631,388.677 59.069,388.834 59.1765,388.989 59.2855,389.143 59.3961,389.297 59.5082,389.449 59.6218,389.6 59.7369,389.75 59.8535,389.898 59.9716,390.046 60.0912,390.192 60.2122,390.337 60.3347,390.481 60.4586,390.624 60.5839,390.765 60.7106,390.906 60.8387,391.045 60.9682,391.182 61.0991,391.319 61.2313,391.454 61.3033,391.526 61.4376,391.659 61.5732,391.79 61.7101,391.921 61.8483,392.05 61.9878,392.177 62.1286,392.303 62.2706,392.428 62.4139,392.551 62.5584,392.673 62.7041,392.793 62.8509,392.912 62.999,393.029 63.1483,393.145 63.2987,393.26 63.4502,393.373 63.6028,393.484 63.7566,393.594 63.9115,393.702 64.0674,393.809 64.2244,393.914 64.3824,394.018 64.5415,394.12 64.7015,394.22 64.8626,394.319 65.0246,394.416 65.1877,394.512 65.3516,394.606 65.5165,394.698 65.6823,394.789 65.849,394.878 66.0166,394.965 66.185,395.051 66.3543,395.135 66.5245,395.217 66.6954,395.298 66.8672,395.377 67.0397,395.454 67.213,395.529 67.387,395.603 67.5618,395.675 67.7372,395.745 67.9134,395.813 68.0902,395.88 68.2677,395.945 68.4458,396.008 68.6246,396.069 68.804,396.129 68.9839,396.186 69.1644,396.242 69.3455,396.296 69.5271,396.349 69.7092,396.399 69.8918,396.448 70.0749,396.495 70.2584,396.54 70.4424,396.583 70.6268,396.624 70.8116,396.664 70.9968,396.701 71.1824,396.737 71.3683,396.771 71.5545,396.803 71.7411,396.833 71.9279,396.861 72.115,396.888 72.3024,396.912 72.49,396.935 72.6778,396.956 72.8658,396.975 73.054,396.992 73.2424,397.007 73.4309,397.02 73.6195,397.032 73.8083,397.041 73.9971,397.049 74.186,397.055 74.3749,397.059 74.5639,397.061 74.7529,397.061 74.9418,397.059 75.1308,397.055 75.3197,397.05 75.5085,397.042 75.6972,397.033 75.8859,397.021 76.0744,397.008 76.2628,396.993 76.451,396.976 76.639,396.958 76.8269,396.937 77.0145,396.914 77.2019,396.89 77.389,396.864 77.5759,396.835 77.7625,396.805 77.9487,396.774 78.1347,396.74 78.3203,396.704 78.5055,396.667 78.6903,396.627 78.8748,396.586 79.0588,396.543 79.2423,396.498 79.4255,396.452 79.6081,396.403 79.7903,396.353 79.9719,396.301 80.153,396.247 80.3336,396.191 80.5136,396.133 80.693,396.074 80.8718,396.013 81.0499,395.95 81.2275,395.885 81.4044,395.819 81.5806,395.75 81.7561,395.68 81.9309,395.609 82.105,395.535 82.2784,395.46 82.4509,395.383 82.6227,395.304 82.7938,395.224 82.9639,395.142 83.1333,395.058 83.3018,394.972 83.4695,394.885 83.6363,394.796 83.8021,394.706 83.9671,394.613 84.1311,394.52 84.2942,394.424 84.4563,394.327 84.6175,394.228 84.7776,394.128 84.9368,394.026 85.0949,393.923 85.252,393.818 85.408,393.711 85.5629,393.603 85.7168,393.493 85.8695,393.382 86.0211,393.269 86.1716,393.155 86.3209,393.039 86.4691,392.921 86.6161,392.803 86.7619,392.682 86.9065,392.561 87.0498,392.438 87.192,392.313 87.3328,392.187 87.4724,392.06 87.6108,391.931 87.7478,391.801 87.8835,391.669 88.0179,391.537 88.151,391.402 88.2827,391.267 88.413,391.13 88.542,390.992 88.6696,390.852 88.7958,390.712 88.9206,390.57 89.0439,390.427 89.1658,390.282 89.2863,390.137 89.4053,389.99 89.5228,389.842 89.6389,389.693 89.7534,389.542 89.8665,389.391 89.978,389.238 90.088,389.085 90.1964,388.93 90.3033,388.774 90.4086,388.617 90.5124,388.459 90.6145,388.3 90.7151,388.14 90.8141,387.979 90.9114,387.817 91.0072,387.655 91.1013,387.491 91.1937,387.326 91.2845,387.16 91.3736,386.993 91.4611,386.826 91.5469,386.658 91.631,386.488 91.7134,386.318 91.7941,386.147 91.8731,385.976 91.9503,385.803 92.0259,385.63 92.0997,385.456 92.1717,385.281 92.242,385.106 92.3106,384.93 92.3774,384.753 92.4424,384.576 92.5056,384.398 92.567,384.219 92.6267,384.039 92.6846,383.86 92.7406,383.679 92.7949,383.498 92.8473,383.317 92.8979,383.134 92.9467,382.952 92.9937,382.769 93.0389,382.585 93.0822,382.401 93.1236,382.217 93.1632,382.032 93.201,381.847 93.2369,381.662 93.271,381.476 93.3032,381.289 93.3335,381.103 93.362,380.916 93.3885,380.729 93.4133,380.542 93.4361,380.354 93.4571,380.166 93.4762,379.978 93.4934,379.79 93.5087,379.602 93.5222,379.413 93.5337,379.225 93.5434,379.036 93.5512,378.847 93.5571,378.658 93.5611,378.469 93.5632,378.28 93.5635,378.163 93.5635,118.182 93.5635,118.167 93.5646,117.978 93.5676,117.789 93.5725,117.6 93.5793,117.411 93.5879,117.222 93.5985,117.033 93.6109,116.845 93.6252,116.656 93.6414,116.468 93.6595,116.28 93.6794,116.092 93.7013,115.904 93.725,115.717 93.7505,115.53 93.778,115.343 93.8073,115.156 93.8385,114.97 93.8716,114.784 93.9065,114.598 93.9432,114.413 93.9819,114.228 94.0223,114.043 94.0646,113.859 94.1088,113.675 94.1548,113.492 94.2026,113.309 94.2522,113.127 94.3037,112.945 94.3569,112.763 94.412,112.583 94.4689,112.402 94.5276,112.223 94.5881,112.044 94.6504,111.865 94.7144,111.688 94.7802,111.51 94.8478,111.334 94.9172,111.158 94.9883,110.983 95.0612,110.809 95.1358,110.635 95.2121,110.462 95.2902,110.29 95.3699,110.119 95.4514,109.948 95.5346,109.779 95.6195,109.61 95.706,109.442 95.7943,109.275 95.8842,109.108 95.9757,108.943 96.0689,108.779 96.1638,108.615 96.2603,108.453 96.3584,108.291 96.4581,108.131 96.5594,107.971 96.6623,107.813 96.7667,107.655 96.8728,107.499 96.9804,107.343 97.0895,107.189 97.2002,107.036 97.3125,106.884 97.4262,106.733 97.5414,106.583 97.6582,106.435 97.7764,106.287 97.896,106.141 98.0172,105.996 98.1397,105.852 98.2638,105.71 98.3892,105.568 98.516,105.428 98.6443,105.289 98.7739,105.152 98.9048,105.016 99.0372,104.881 99.1709,104.747 99.3059,104.615 99.4422,104.484 99.5798,104.354 99.7187,104.226 99.8589,104.1 100,103.974 100.143,103.85 100.287,103.728 100.432,103.607 100.578,103.487 100.726,103.369 100.875,103.253 101.025,103.138 101.176,103.024 101.328,102.912 101.481,102.801 101.635,102.692 101.791,102.585 101.947,102.479 102.105,102.374 102.263,102.272 102.423,102.171 102.584,102.071 102.745,101.973 102.908,101.877 103.071,101.782 103.236,101.689 103.401,101.597 103.567,101.508 103.735,101.42 103.903,101.333 104.072,101.248 104.241,101.165 104.412,101.084 104.583,101.004 104.755,100.926 104.928,100.85 105.102,100.776 105.277,100.703 105.452,100.632 105.628,100.563 105.804,100.495 105.981,100.43 106.159,100.366 106.338,100.304 106.517,100.243 106.696,100.185 106.877,100.128 107.057,100.073 107.239,100.02 107.421,99.9687 107.603,99.9192 107.786,99.8715 107.969,99.8257 108.153,99.7817 108.337,99.7395 108.522,99.6992 108.707,99.6607 108.892,99.6241 109.078,99.5893 109.264,99.5564 109.45,99.5254 109.637,99.4962 109.824,99.4689 110.011,99.4435 110.199,99.4199 110.387,99.3982 110.575,99.3784 110.763,99.3605 110.951,99.3444 111.139,99.3303 111.328,99.318 111.517,99.3076 111.705,99.2991 111.894,99.2925 112.083,99.2878 112.272,99.285 112.461,99.284 206.949,99.284 207.341,99.2848 208.286,99.2935 209.231,99.3115 210.175,99.3391 211.119,99.3761 212.063,99.4225 213.006,99.4783 213.949,99.5436 214.891,99.6183 215.832,99.7024 216.772,99.796 217.711,99.8989 218.649,100.011 219.586,100.133 220.522,100.264 221.457,100.404 222.39,100.554 223.321,100.713 224.251,100.881 225.179,101.059 226.105,101.246 227.029,101.442 227.951,101.648 228.872,101.862 229.79,102.086 230.705,102.319 231.619,102.561 232.53,102.812 233.438,103.073 234.344,103.342 235.246,103.621 236.147,103.908 237.044,104.205 237.938,104.51 238.829,104.824 239.717,105.148 240.601,105.48 241.483,105.821 242.36,106.17 243.235,106.529 244.105,106.896 244.972,107.272 245.835,107.657 246.694,108.05 247.55,108.451 248.401,108.862 249.248,109.28 250.091,109.708 250.929,110.143 251.763,110.587 252.593,111.039 253.418,111.5 254.238,111.969 255.054,112.446 255.865,112.931 256.671,113.424 257.472,113.925 258.267,114.435 259.058,114.952 259.844,115.477 260.624,116.01 261.399,116.55 262.169,117.098 262.933,117.655 263.691,118.218 264.444,118.789 265.191,119.368 265.932,119.954 266.667,120.548 267.396,121.148 268.119,121.757 268.836,122.372 269.547,122.994 270.252,123.624 270.95,124.26 271.642,124.904 272.328,125.554 273.007,126.211 273.679,126.875 274.344,127.546 275.003,128.223 275.655,128.907 276.301,129.597 276.939,130.294 277.57,130.997 278.194,131.706 278.811,132.422 279.421,133.144 280.024,133.871 280.619,134.605 281.207,135.345 281.788,136.09 282.361,136.841 282.926,137.598 283.484,138.361 284.035,139.129 284.577,139.903 285.112,140.682 285.639,141.466 286.158,142.255 286.669,143.05 287.173,143.85 287.668,144.654 288.155,145.464 288.634,146.279 289.105,147.098 289.567,147.922 290.022,148.75 290.468,149.583 290.906,150.42 291.335,151.262 291.756,152.108 292.168,152.958 292.572,153.812 292.967,154.671 293.354,155.533 293.732,156.399 294.101,157.268 294.462,158.142 294.814,159.019 295.157,159.899 295.492,160.783 295.817,161.67 296.134,162.56 296.441,163.453 296.74,164.35 297.03,165.249 297.31,166.151 297.582,167.056 297.845,167.964 298.098,168.874 298.343,169.787 298.578,170.702 298.804,171.62 299.021,172.539 299.229,173.461 299.427,174.385 299.616,175.31 299.796,176.238 299.967,177.167 300.128,178.098 300.281,179.031 300.423,179.965 300.557,180.9 300.681,181.837 300.795,182.775 300.901,183.714 300.997,184.654 301.083,185.595 301.16,186.537 301.228,187.479 301.286,188.422 301.335,189.366 301.374,190.31 301.404,191.254 301.424,192.199 301.435,193.144 301.437,194.089 301.429,195.033 301.412,195.978 301.385,196.923 301.349,197.867 301.303,198.811 301.248,199.754 301.184,200.697 301.11,201.639 301.026,202.58 300.933,203.52 300.831,204.459 300.72,205.398 300.599,206.335 300.468,207.271 300.329,208.205 300.18,209.138 300.021,210.07 299.854,211 299.677,211.928 299.491,212.854 299.295,213.779 299.091,214.701 298.877,215.621 298.654,216.539 298.421,217.455 298.18,218.369 297.929,219.28 297.67,220.188 297.401,221.094 297.123,221.997 296.837,222.898 296.541,223.795 296.236,224.69 295.923,225.581 295.6,226.469 295.269,227.354 294.928,228.235 294.579,229.113 294.222,229.988 293.855,230.859 293.48,231.726 293.096,232.589 292.704,233.449 292.302,234.304 291.893,235.156 291.475,236.003 291.048,236.846 290.613,237.685 290.17,238.52 289.718,239.35 289.259,240.175 288.79,240.996 288.314,241.812 287.83,242.623 287.337,243.429 286.836,244.231 286.328,245.027 285.811,245.818 285.287,246.604 284.755,247.385 284.215,248.16 283.667,248.93 283.112,249.695 282.549,250.454 281.978,251.207 281.4,251.954 280.814,252.696 280.221,253.431 279.621,254.161 279.014,254.885 278.399,255.602 277.777,256.314 277.148,257.019 276.512,257.718 275.869,258.41 275.219,259.096 274.563,259.776 273.899,260.448 273.229,261.114 272.553,261.774 271.869,262.427 271.18,263.072 270.483,263.711 269.781,264.343 269.072,264.968 268.357,265.585 267.636,266.196 266.908,266.799 266.175,267.395 265.436,267.984 264.691,268.565 263.94,269.138 263.184,269.705 262.422,270.263 261.654,270.814 260.881,271.357 260.102,271.893 259.318,272.42 258.529,272.94 257.735,273.452 256.936,273.956 256.131,274.451 255.322,274.939 254.508,275.419 253.689,275.89 252.866,276.354 252.038,276.809 251.205,277.255 250.368,277.694 249.527,278.124 248.681,278.545 247.831,278.958 246.977,279.363 246.119,279.759 245.258,280.146 244.392,280.525 243.523,280.895 242.65,281.257 241.773,281.609 240.893,281.953 240.009,282.288 239.123,282.614 238.233,282.932 237.339,283.24 236.443,283.539 235.544,283.83 234.642,284.111 233.737,284.384 232.83,284.647 231.92,284.901 231.007,285.146 230.092,285.382 229.175,285.609 228.256,285.827 227.334,286.035 226.41,286.235 225.485,286.425 224.557,286.605 223.628,286.777 222.697,286.939 222.511,286.971 222.325,287.006 222.14,287.042 221.955,287.08 221.77,287.12 221.586,287.161 221.402,287.205 221.218,287.25 221.035,287.297 220.853,287.346 220.671,287.397 220.489,287.45 220.308,287.504 220.128,287.561 219.948,287.619 219.769,287.679 219.59,287.74 219.412,287.804 219.235,287.869 219.058,287.936 218.882,288.005 218.707,288.075 218.532,288.148 218.358,288.222 218.185,288.297 218.013,288.375 217.841,288.454 217.671,288.535 217.501,288.617 217.332,288.702 217.163,288.788 216.996,288.875 216.829,288.965 216.664,289.056 216.499,289.148 216.335,289.243 216.172,289.339 216.011,289.436 215.85,289.535 215.69,289.636 215.531,289.739 215.373,289.843 215.216,289.948 215.061,290.055 214.906,290.164 214.753,290.274 214.6,290.386 214.449,290.499 214.299,290.614 214.15,290.73 214.002,290.848 213.855,290.967 213.71,291.087 213.566,291.209 213.422,291.333 213.281,291.458 213.14,291.584 213.001,291.712 212.863,291.841 212.726,291.972 212.591,292.104 212.457,292.237 212.324,292.371 212.193,292.507 212.063,292.645 211.934,292.783 211.807,292.923 211.681,293.064 211.557,293.206 211.434,293.35 211.313,293.494 211.193,293.64 211.074,293.787 210.957,293.936 210.841,294.085 210.727,294.236 210.615,294.388 210.503,294.541 210.394,294.694 210.286,294.85 210.179,295.006 210.075,295.163 209.971,295.321 209.87,295.48 209.769,295.641 209.671,295.802 209.574,295.964 209.479,296.127 209.385,296.292 209.293,296.457 209.203,296.623 209.114,296.79 209.027,296.957 208.942,297.126 208.858,297.295 208.776,297.466 208.696,297.637 208.618,297.809 208.541,297.981 208.466,298.155 208.393,298.329 208.321,298.504 208.251,298.679 208.183,298.856 208.117,299.033 208.052,299.21 207.99,299.389 207.929,299.568 207.87,299.747 207.812,299.927 207.757,300.108 207.703,300.289 207.651,300.471 207.601,300.653 207.553,300.835 207.506,301.019 207.462,301.202 207.419,301.386 207.378,301.571 207.339,301.756 207.302,301.941 207.266,302.127 207.233,302.313 207.201,302.499 207.171,302.686 207.143,302.872 207.117,303.06 207.093,303.247 207.071,303.435 207.05,303.623 207.032,303.811 207.015,303.999 207,304.187 206.987,304.376 206.976,304.564 206.967,304.753 206.96,304.942 206.955,305.131 206.951,305.32 206.949,305.509 206.949,305.572 206.949,393.819 206.949,393.921 206.947,394.11 206.943,394.298 206.938,394.487 206.93,394.676 206.92,394.865 206.909,395.054 206.896,395.242 206.881,395.43 206.863,395.619 206.845,395.807 206.824,395.994 206.801,396.182 206.776,396.369 206.75,396.557 206.722,396.743 206.691,396.93 206.659,397.116 206.626,397.302 206.59,397.488 206.552,397.673 206.513,397.858 206.471,398.042 206.428,398.226 206.383,398.41 206.336,398.593 206.288,398.775 206.237,398.957 206.185,399.139 206.131,399.32 206.075,399.501 206.017,399.681 205.958,399.86 205.896,400.039 205.833,400.217 205.768,400.394 205.702,400.571 205.633,400.747 205.563,400.923 205.491,401.097 205.418,401.271 205.342,401.445 205.265,401.617 205.186,401.789 205.106,401.96 205.023,402.13 204.939,402.299 204.854,402.468 204.766,402.635 204.677,402.802 204.587,402.968 204.495,403.133 204.401,403.297 204.305,403.46 204.208,403.622 204.109,403.783 204.008,403.943 203.906,404.102 203.803,404.26 203.698,404.417 203.591,404.573 203.482,404.728 203.373,404.882 203.261,405.034 203.148,405.186 203.034,405.336 202.918,405.485 202.801,405.634 202.682,405.78 202.561,405.926 202.44,406.071 202.316,406.214 202.192,406.356 202.066,406.497 201.938,406.636 201.809,406.774 201.679,406.911 201.547,407.047 " />
</g>
</svg>
