<svg xmlns="http://www.w3.org/2000/svg" version="1.1" xmlns:xlink="http://www.w3.org/1999/xlink" width="1000" height="1000"><svg width="1000" height="1000" viewBox="0 0 1000 1000" fill="none" xmlns="http://www.w3.org/2000/svg">
<path fill-rule="evenodd" clip-rule="evenodd" d="M538.349 546.613L538.069 546.662L537.789 546.714L537.51 546.769L537.232 546.826L536.953 546.886L536.676 546.948L536.399 547.014L536.122 547.082L535.846 547.153L535.572 547.227L535.298 547.303L535.024 547.383L534.751 547.465L534.48 547.551L534.209 547.638L533.939 547.728L533.67 547.82L533.402 547.917L533.135 548.015L532.868 548.115L532.603 548.219L532.34 548.325L532.076 548.435L531.814 548.546L531.553 548.659L531.294 548.777L531.035 548.896L530.779 549.018L530.523 549.142L530.269 549.27L530.014 549.399L529.763 549.53L529.511 549.666L529.263 549.803L529.014 549.942L528.767 550.085L528.522 550.229L528.279 550.375L528.037 550.525L527.796 550.677L527.556 550.832L527.318 550.989L527.082 551.147L526.848 551.308L526.615 551.472L526.384 551.638L526.154 551.807L525.926 551.977L525.7 552.15L525.476 552.325L525.253 552.503L525.032 552.682L524.813 552.863L524.596 553.047L524.38 553.234L524.167 553.422L523.955 553.612L523.745 553.805L523.538 553.999L523.331 554.196L523.128 554.395L522.926 554.595L522.726 554.797L522.528 555.002L522.333 555.21L522.138 555.418L521.947 555.629L521.757 555.841L521.571 556.055L521.385 556.272L521.203 556.489L521.022 556.709L520.843 556.931L520.667 557.155L520.492 557.38L520.32 557.607L520.152 557.836L519.983 558.067L519.819 558.297L519.656 558.532L519.495 558.767L519.338 559.004L519.182 559.242L519.03 559.482L518.878 559.724L518.73 559.967L518.584 560.211L518.441 560.456L518.299 560.705L518.161 560.953L518.025 561.204L517.891 561.455L517.76 561.707L517.632 561.961L517.505 562.216L517.382 562.474L517.261 562.731L517.144 562.99L517.028 563.25L516.915 563.512L516.805 563.774L516.697 564.038L516.591 564.301L516.489 564.568L516.389 564.835L516.291 565.101L516.198 565.371L516.106 565.641L516.017 565.91L515.93 566.181L515.847 566.454L515.766 566.727L515.687 567.001L515.612 567.275L515.54 567.549L515.469 567.827L515.403 568.102L515.338 568.38L515.276 568.658L515.218 568.937L515.162 569.216L515.108 569.496L515.058 569.776L515.01 570.057L514.964 570.338L514.922 570.619L514.883 570.902L514.847 571.183L514.814 571.467L514.782 571.75L514.755 572.033L514.73 572.316L514.707 572.6L514.687 572.884L514.671 573.168L514.657 573.452L514.647 573.737L514.639 574.022L514.633 574.307L514.63 574.591L514.632 574.876L514.635 575.161L514.641 575.446L514.65 575.731L514.662 576.014L514.677 576.298L514.693 576.583L514.714 576.866L514.737 577.151L514.764 577.434L514.793 577.718L514.824 578.001L514.859 578.283L514.897 578.564L514.936 578.848L514.98 579.128L515.025 579.41L515.073 579.69L515.126 579.97L515.18 580.249L515.236 580.529L515.296 580.806L515.359 581.085L515.424 581.362L515.492 581.638L515.562 581.914L515.636 582.189L515.713 582.464L515.791 582.736L515.874 583.009L515.959 583.282L516.046 583.553L516.136 583.823L516.228 584.092L516.323 584.36L516.422 584.627L516.522 584.894L516.626 585.159L516.731 585.423L516.841 585.686L516.951 585.948L517.066 586.209L517.182 586.468L517.301 586.727L517.423 586.985L517.548 587.241L517.674 587.496L517.804 587.749L517.935 588.002L518.07 588.254L518.206 588.502L518.346 588.751L518.487 588.998L518.632 589.243L518.778 589.488L518.927 589.73L519.079 589.971L519.233 590.211L519.39 590.447L519.548 590.684L519.709 590.919L519.873 591.152L520.039 591.383L520.207 591.613L520.378 591.841L520.549 592.068L520.724 592.293L520.902 592.516L521.081 592.736L521.263 592.956L521.447 593.173L521.632 593.388L521.821 593.602L522.01 593.815L522.203 594.024L522.397 594.232L522.593 594.438L522.792 594.642L522.992 594.845L523.196 595.044L523.399 595.243L523.605 595.439L523.815 595.633L524.024 595.824L524.236 596.014L524.452 596.201L524.667 596.386L524.886 596.57L525.106 596.751L525.327 596.93L525.55 597.107L525.774 597.281L526.002 597.453L526.229 597.623L526.46 597.791L526.692 597.956L526.925 598.119L527.16 598.279L527.396 598.437L527.634 598.594L527.875 598.747L528.116 598.898L528.359 599.046L528.603 599.192L528.848 599.336L529.095 599.478L529.344 599.617L529.594 599.752L529.845 599.886L530.098 600.017L530.352 600.145L530.608 600.272L530.864 600.395L531.121 600.518L531.38 600.635L531.639 600.751L531.901 600.864L532.163 600.976L532.427 601.083L532.691 601.188L532.957 601.292L533.224 601.391L533.49 601.489L533.758 601.584L534.028 601.676L534.299 601.765L534.57 601.851L534.841 601.935L535.114 602.017L535.388 602.095L535.662 602.17L535.938 602.244L536.214 602.313L536.491 602.381L536.768 602.446L537.045 602.508L537.324 602.567L537.602 602.624L537.882 602.677L538.163 602.728L538.443 602.776L538.724 602.821L539.004 602.863L539.288 602.903L539.569 602.939L539.852 602.973L540.134 603.003L540.419 603.032L540.702 603.058L540.985 603.08L541.27 603.1L541.553 603.116L541.838 603.13L542.122 603.142L542.407 603.15L542.692 603.156L542.976 603.159L543.261 603.157L543.546 603.154L543.83 603.148L544.113 603.141L544.398 603.129L544.683 603.113L544.967 603.097L545.251 603.076L545.534 603.053L545.818 603.028L546.102 602.999L546.385 602.967L546.666 602.933L546.948 602.896L547.231 602.856L547.511 602.814L547.793 602.767L547.838 602.759L549.801 602.417L551.76 602.056L553.715 601.675L555.667 601.274L557.615 600.855L559.558 600.415L561.496 599.956L563.432 599.476L565.361 598.979L567.284 598.462L569.203 597.926L571.118 597.37L573.024 596.796L574.927 596.203L576.823 595.589L578.712 594.958L580.596 594.307L582.473 593.638L584.342 592.95L586.205 592.243L588.06 591.518L589.91 590.774L591.751 590.012L593.584 589.231L595.409 588.433L597.226 587.616L599.036 586.78L600.836 585.927L602.628 585.056L604.411 584.166L606.184 583.259L607.949 582.336L609.706 581.392L611.451 580.433L613.188 579.456L614.916 578.462L616.631 577.45L618.338 576.421L620.033 575.375L621.719 574.313L623.394 573.232L625.058 572.136L626.71 571.024L628.352 569.894L629.983 568.749L631.601 567.586L633.208 566.407L634.804 565.214L636.387 564.004L637.958 562.778L639.517 561.537L641.063 560.28L642.596 559.007L644.117 557.72L645.625 556.417L647.119 555.099L648.601 553.767L650.07 552.418L651.523 551.056L652.964 549.681L654.391 548.289L655.804 546.885L657.203 545.465L658.588 544.033L659.958 542.585L661.313 541.125L662.655 539.651L663.981 538.163L665.292 536.662L666.588 535.149L667.869 533.623L669.135 532.083L670.385 530.532L671.62 528.968L672.838 527.392L674.042 525.802L675.23 524.202L676.4 522.59L677.556 520.966L678.694 519.33L679.816 517.683L680.922 516.026L682.011 514.356L683.083 512.677L684.139 510.986L685.178 509.285L686.2 507.575L687.204 505.853L688.191 504.122L689.161 502.382L690.113 500.631L691.048 498.87L691.965 497.101L692.864 495.323L693.745 493.535L694.61 491.739L695.455 489.936L696.283 488.122L697.092 486.302L697.883 484.471L698.656 482.634L699.41 480.79L700.147 478.939L700.864 477.079L701.563 475.213L702.243 473.339L702.904 471.46L703.546 469.572L704.171 467.68L704.775 465.781L705.361 463.875L705.927 461.965L706.474 460.049L707.003 458.128L707.512 456.201L708.001 454.268L708.473 452.332L708.923 450.39L709.355 448.444L709.767 446.495L710.16 444.541L710.533 442.582L710.886 440.622L711.22 438.657L711.535 436.688L711.829 434.718L712.103 432.744L712.359 430.767L712.594 428.787L712.809 426.806L713.005 424.824L713.181 422.838L713.336 420.851L713.472 418.863L713.589 416.873L713.686 414.883L713.761 412.891L713.818 410.899L713.854 408.906L713.871 406.913L713.868 404.919L713.844 402.928L713.802 400.934L713.738 398.943L713.656 396.951L713.553 394.961L713.43 392.972L713.287 390.983L713.125 388.997L712.942 387.013L712.74 385.03L712.518 383.049L712.276 381.071L712.015 379.096L711.734 377.122L711.432 375.152L711.112 373.185L710.771 371.221L710.411 369.261L710.032 367.305L709.633 365.352L709.214 363.403L708.777 361.459L708.319 359.519L707.842 357.584L707.346 355.654L706.831 353.729L706.296 351.809L705.742 349.894L705.17 347.985L704.578 346.083L703.966 344.186L703.337 342.295L702.688 340.41L702.02 338.533L701.334 336.662L700.629 334.798L699.906 332.94L699.163 331.09L698.403 329.249L697.624 327.414L696.827 325.588L696.011 323.769L695.178 321.958L694.327 320.158L693.456 318.364L692.569 316.58L691.664 314.805L690.741 313.038L689.801 311.281L688.843 309.533L687.867 307.796L686.874 306.068L685.864 304.35L684.836 302.642L683.793 300.946L682.731 299.258L681.654 297.583L680.559 295.916L679.447 294.262L678.319 292.62L677.176 290.988L676.015 289.367L674.838 287.759L673.647 286.162L672.438 284.577L671.213 283.006L669.974 281.445L668.719 279.898L667.448 278.363L666.161 276.841L664.86 275.331L663.544 273.835L662.214 272.353L660.867 270.882L659.507 269.427L658.132 267.985L656.742 266.555L655.34 265.14L653.921 263.741L652.49 262.355L651.044 260.983L649.586 259.625L648.113 258.283L646.626 256.955L645.128 255.642L643.616 254.344L642.091 253.062L640.554 251.794L639.004 250.543L637.44 249.306L635.865 248.086L634.279 246.881L632.679 245.692L631.068 244.519L629.446 243.363L627.811 242.222L626.167 241.098L624.51 239.991L622.843 238.9L621.163 237.826L619.475 236.769L617.776 235.729L616.066 234.705L614.346 233.699L612.616 232.711L610.876 231.739L609.127 230.785L607.368 229.849L605.6 228.93L603.823 228.029L602.036 227.145L600.242 226.28L598.438 225.433L596.626 224.603L594.807 223.792L592.98 222.999L591.144 222.225L589.3 221.469L587.449 220.731L585.59 220.012L583.726 219.312L581.854 218.63L579.974 217.967L578.088 217.322L576.196 216.697L574.299 216.091L572.395 215.503L570.485 214.935L568.571 214.386L566.649 213.856L564.724 213.345L562.793 212.854L560.858 212.382L558.916 211.929L556.972 211.496L555.023 211.082L553.069 210.688L551.113 210.313L549.153 209.958L547.189 209.622L545.22 209.307L543.25 209.01L541.277 208.734L539.301 208.477L537.324 208.241L535.343 208.023L533.361 207.826L531.376 207.649L529.389 207.491L527.402 207.353L525.413 207.236L523.423 207.138L521.432 207.06L519.441 207.002L517.448 206.964L515.457 206.945L514.63 206.943" fill="white"></path>
<path d="M329.245 756.006L261.266 697.669L245.838 195.299L538.968 182.282L550.539 292.688L385.654 307.151L362.03 697.669L329.245 756.006Z" fill="white"></path>
<path fill-rule="evenodd" clip-rule="evenodd" d="M514.63 707.642V707.795L514.627 708.08L514.621 708.363L514.614 708.648L514.602 708.933L514.586 709.218L514.57 709.502L514.55 709.786L514.528 710.069L514.501 710.354L514.474 710.637L514.442 710.919L514.407 711.202L514.37 711.484L514.33 711.767L514.288 712.047L514.242 712.329L514.193 712.609L514.144 712.889L514.089 713.17L514.032 713.448L513.973 713.727L513.91 714.004L513.845 714.282L513.778 714.559L513.707 714.834L513.635 715.109L513.558 715.383L513.479 715.657L513.398 715.93L513.314 716.202L513.226 716.474L513.138 716.743L513.044 717.013L512.949 717.281L512.851 717.548L512.752 717.815L512.648 718.08L512.543 718.345L512.434 718.607L512.324 718.869L512.21 719.131L512.094 719.39L511.975 719.65L511.854 719.907L511.729 720.163L511.603 720.418L511.475 720.673L511.342 720.924L511.208 721.176L511.073 721.426L510.934 721.675L510.792 721.922L510.648 722.167L510.502 722.411L510.353 722.654L510.201 722.895L510.047 723.134L509.892 723.373L509.734 723.609L509.572 723.844L509.408 724.078L509.244 724.31L509.075 724.539L508.905 724.768L508.733 724.994L508.559 725.218L508.383 725.443L508.203 725.663L508.021 725.883L507.839 726.101L507.652 726.316L507.465 726.53L507.275 726.743L507.083 726.952L506.888 727.16L506.693 727.367L506.494 727.571L506.294 727.773L392.442 841.661L392.425 841.676L392.224 841.876L392.019 842.075L391.812 842.271L391.605 842.465L391.394 842.657L391.181 842.847L390.967 843.035L390.752 843.22L390.534 843.403L390.314 843.585L390.092 843.763L389.869 843.94L389.645 844.114L389.418 844.287L389.19 844.457L388.96 844.624L388.728 844.79L388.494 844.953L388.259 845.113L388.023 845.271L387.785 845.427L387.545 845.581L387.304 845.732L387.062 845.881L386.816 846.027L386.571 846.17L386.324 846.312L386.075 846.45L385.827 846.588L385.575 846.722L385.322 846.853L385.069 846.982L384.813 847.107L384.557 847.232L384.3 847.353L384.041 847.472L383.782 847.588L383.519 847.701L383.257 847.811L382.994 847.919L382.73 848.025L382.465 848.129L382.199 848.228L381.93 848.326L381.662 848.421L381.393 848.513L381.123 848.602L380.852 848.689L380.579 848.774L380.307 848.855L380.034 848.933L379.759 849.009L379.484 849.083L379.209 849.152L378.932 849.22L378.655 849.284L378.377 849.346L378.099 849.406L377.82 849.462L377.54 849.516L377.26 849.566L376.98 849.614L376.698 849.66L376.416 849.703L376.135 849.742L375.853 849.779L375.57 849.813L375.287 849.843L375.004 849.872L374.72 849.898L374.437 849.92L374.153 849.94L373.869 849.958L373.585 849.971L373.3 849.982L373.015 849.991L372.731 849.997L372.446 850L372.161 849.999L371.877 849.997L371.592 849.991L371.307 849.982L371.024 849.97L370.74 849.956L370.455 849.938L370.172 849.919L369.887 849.896L369.604 849.871L369.321 849.842L369.038 849.81L368.756 849.776L368.473 849.739L368.191 849.699L367.91 849.657L367.629 849.611L367.349 849.563L367.069 849.512L366.789 849.458L366.51 849.402L366.232 849.342L365.955 849.28L365.677 849.215L365.4 849.147L365.125 849.077L364.849 849.003L364.575 848.927L364.302 848.848L364.03 848.766L363.757 848.682L363.486 848.596L363.216 848.506L362.947 848.414L362.679 848.319L362.41 848.221L362.145 848.12L361.879 848.017L361.615 847.912L361.352 847.803L361.09 847.692L360.829 847.579L360.568 847.461L360.311 847.344L360.053 847.222L359.797 847.098L359.541 846.972L359.288 846.842L359.035 846.711L358.785 846.577L358.535 846.44L358.287 846.301L358.04 846.16L357.794 846.015L357.55 845.869L357.308 845.72L357.067 845.569L356.827 845.415L356.589 845.259L356.353 845.101L356.118 844.939L355.884 844.777L355.652 844.611L355.422 844.444L355.194 844.273L354.969 844.1L354.743 843.925L354.52 843.749L354.298 843.57L354.08 843.389L353.861 843.205L353.646 843.02L353.432 842.832L353.22 842.642L353.01 842.449L352.802 842.256L352.595 842.059L352.391 841.861L352.189 841.661L238.337 727.773L238.228 727.665L238.029 727.461L237.832 727.257L237.637 727.049L237.444 726.839L237.253 726.628L237.064 726.414L236.878 726.2L236.693 725.983L236.511 725.765L236.331 725.544L236.153 725.322L235.977 725.098L235.804 724.872L235.633 724.644L235.464 724.415L235.298 724.185L235.133 723.951L234.971 723.718L234.812 723.481L234.655 723.244L234.5 723.005L234.348 722.765L234.198 722.523L234.05 722.28L233.905 722.035L233.762 721.788L233.622 721.54L233.484 721.292L233.349 721.04L233.216 720.789L233.086 720.536L232.959 720.281L232.834 720.025L232.711 719.769L232.591 719.51L232.474 719.25L232.359 718.99L232.247 718.729L232.137 718.465L232.03 718.202L231.926 717.937L231.825 717.671L231.726 717.405L231.629 717.137L231.536 716.867L231.445 716.597L231.357 716.326L231.271 716.055L231.189 715.782L231.109 715.509L231.031 715.235L230.957 714.961L230.885 714.685L230.816 714.41L230.749 714.132L230.686 713.855L230.625 713.576L230.567 713.298L230.512 713.019L230.46 712.739L230.41 712.458L230.364 712.177L230.32 711.897L230.278 711.615L230.24 711.332L230.205 711.05L230.172 710.767L230.142 710.483L230.115 710.2L230.091 709.917L230.07 709.632L230.051 709.349L230.036 709.064L230.023 708.779L230.013 708.495L230.006 708.21L230.001 707.927L230 707.642L230 178.472V178.449L230.002 178.164L230.006 177.88L230.014 177.595L230.024 177.311L230.037 177.026L230.053 176.742L230.071 176.458L230.093 176.174L230.117 175.89L230.144 175.607L230.175 175.324L230.207 175.041L230.243 174.758L230.282 174.476L230.323 174.195L230.367 173.913L230.414 173.632L230.464 173.352L230.516 173.072L230.572 172.793L230.63 172.514L230.691 172.236L230.755 171.959L230.821 171.682L230.89 171.406L230.962 171.13L231.037 170.856L231.115 170.582L231.195 170.309L231.278 170.036L231.364 169.765L231.452 169.494L231.543 169.224L231.637 168.955L231.733 168.688L231.833 168.421L231.934 168.155L232.039 167.89L232.146 167.626L232.256 167.363L232.368 167.102L232.483 166.841L232.601 166.582L232.721 166.324L232.844 166.067L232.969 165.811L233.097 165.557L233.227 165.304L233.36 165.052L233.495 164.802L233.633 164.553L233.774 164.305L233.916 164.059L234.062 163.814L234.209 163.571L234.36 163.329L234.512 163.089L234.667 162.85L234.825 162.612L234.984 162.377L235.146 162.143L235.311 161.91L235.477 161.68L235.646 161.45L235.818 161.223L235.991 160.997L236.167 160.773L236.345 160.551L236.525 160.331L236.708 160.112L236.893 159.896L237.079 159.681L237.268 159.468L237.459 159.257L237.652 159.048L237.848 158.841L238.045 158.635L238.244 158.432L238.446 158.231L238.649 158.032L238.854 157.834L239.062 157.639L239.271 157.446L239.482 157.255L239.695 157.067L239.91 156.88L240.127 156.695L240.345 156.513L240.566 156.333L240.788 156.155L241.012 155.979L241.238 155.806L241.465 155.635L241.694 155.466L241.925 155.299L242.158 155.135L242.392 154.973L242.627 154.813L242.865 154.656L243.104 154.501L243.344 154.349L243.586 154.199L243.829 154.051L244.074 153.906L244.32 153.764L244.568 153.623L244.817 153.486L245.068 153.35L245.319 153.218L245.572 153.087L245.827 152.96L246.083 152.835L246.34 152.712L246.598 152.592L246.857 152.475L247.117 152.36L247.379 152.248L247.642 152.138L247.906 152.031L248.17 151.927L248.436 151.825L248.703 151.726L248.971 151.63L249.24 151.536L249.51 151.445L249.78 151.357L250.052 151.272L250.324 151.189L250.597 151.109L250.871 151.032L251.146 150.957L251.421 150.885L251.697 150.816L251.974 150.75L252.252 150.686L252.53 150.626L252.808 150.568L253.087 150.512L253.367 150.46L253.648 150.411L253.928 150.364L254.21 150.32L254.491 150.279L254.773 150.24L255.056 150.205L255.338 150.172L255.621 150.142L255.905 150.115L256.188 150.091L256.472 150.07L256.756 150.051L257.04 150.036L257.325 150.023L257.609 150.013L257.894 150.006L258.179 150.001L258.463 150L514.63 150L516.474 150.007L519.036 150.038L521.596 150.095L524.157 150.177L526.716 150.285L529.275 150.419L531.831 150.578L534.387 150.763L536.94 150.974L539.489 151.209L542.038 151.471L544.583 151.758L547.126 152.07L549.665 152.408L552.202 152.771L554.733 153.16L557.262 153.573L559.785 154.012L562.305 154.477L564.819 154.966L567.328 155.481L569.833 156.02L572.332 156.585L574.824 157.175L577.311 157.789L579.792 158.429L582.266 159.093L584.733 159.782L587.194 160.495L589.647 161.234L592.093 161.996L594.531 162.783L596.96 163.595L599.382 164.43L601.795 165.29L604.199 166.174L606.595 167.082L608.981 168.014L611.358 168.969L613.726 169.949L616.083 170.952L618.429 171.979L620.765 173.028L623.093 174.102L625.407 175.198L627.712 176.318L630.004 177.461L632.286 178.626L634.556 179.814L636.814 181.025L639.058 182.259L641.292 183.515L643.512 184.793L645.72 186.093L647.913 187.415L650.094 188.759L652.261 190.125L654.415 191.513L656.555 192.922L658.68 194.352L660.792 195.804L662.889 197.276L664.97 198.77L667.037 200.284L669.088 201.819L671.123 203.374L673.144 204.949L675.147 206.545L677.137 208.161L679.109 209.796L681.064 211.451L683.004 213.126L684.925 214.82L686.831 216.533L688.718 218.265L690.589 220.015L692.441 221.785L694.277 223.573L696.094 225.379L697.893 227.203L699.674 229.045L701.436 230.905L703.179 232.782L704.905 234.677L706.61 236.589L708.297 238.518L709.962 240.463L711.61 242.425L713.238 244.404L714.847 246.399L716.434 248.409L718.002 250.436L719.549 252.478L721.076 254.535L722.583 256.608L724.068 258.696L725.533 260.798L726.976 262.915L728.398 265.046L729.799 267.191L731.178 269.35L732.537 271.524L733.873 273.71L735.186 275.91L736.479 278.123L737.748 280.348L738.995 282.586L740.22 284.837L741.423 287.1L742.603 289.373L743.759 291.66L744.894 293.958L746.005 296.266L747.093 298.586L748.157 300.917L749.198 303.258L750.216 305.61L751.21 307.971L752.18 310.342L753.128 312.724L754.051 315.114L754.95 317.514L755.825 319.921L756.676 322.338L757.502 324.764L758.305 327.197L759.083 329.639L759.836 332.087L760.565 334.545L761.27 337.008L761.949 339.479L762.605 341.956L763.236 344.439L763.841 346.929L764.421 349.426L764.977 351.927L765.507 354.434L766.013 356.945L766.494 359.463L766.948 361.985L767.378 364.51L767.783 367.041L768.162 369.575L768.515 372.113L768.845 374.654L769.147 377.199L769.425 379.745L769.678 382.296L769.904 384.848L770.105 387.403L770.28 389.959L770.431 392.517L770.554 395.077L770.654 397.638L770.727 400.199L770.774 402.76L770.797 405.323L770.794 407.886L770.764 410.447L770.709 413.01L770.628 415.571L770.523 418.131L770.392 420.689L770.233 423.248L770.051 425.803L769.843 428.358L769.608 430.909L769.349 433.458L769.065 436.006L768.754 438.549L768.418 441.089L768.058 443.626L767.671 446.159L767.26 448.688L766.823 451.214L766.361 453.734L765.873 456.249L765.361 458.76L764.823 461.266L764.261 463.765L763.674 466.259L763.061 468.748L762.424 471.229L761.763 473.705L761.076 476.174L760.363 478.634L759.628 481.09L758.868 483.537L758.083 485.976L757.273 488.406L756.44 490.83L755.583 493.244L754.7 495.65L753.795 498.047L752.866 500.435L751.912 502.813L750.935 505.183L749.933 507.54L748.909 509.889L747.861 512.228L746.79 514.555L745.696 516.872L744.579 519.178L743.439 521.472L742.274 523.755L741.089 526.027L739.88 528.285L738.649 530.533L737.394 532.767L736.119 534.99L734.82 537.198L733.501 539.395L732.159 541.577L730.794 543.746L729.41 545.902L728.002 548.043L726.574 550.17L725.125 552.283L723.655 554.381L722.164 556.465L720.652 558.534L719.118 560.586L717.566 562.624L715.992 564.646L714.398 566.653L712.785 568.643L711.151 570.617L709.499 572.574L707.825 574.515L706.134 576.439L704.423 578.346L702.694 580.237L700.945 582.108L699.177 583.964L697.392 585.801L695.588 587.619L693.765 589.421L691.925 591.203L690.067 592.968L688.192 594.714L686.299 596.441L684.389 598.148L682.461 599.836L680.518 601.506L678.557 603.154L676.581 604.784L674.589 606.395L672.579 607.984L670.555 609.554L668.514 611.105L666.46 612.634L664.389 614.142L662.303 615.629L660.202 617.096L658.087 618.541L655.957 619.967L653.814 621.369L651.657 622.751L649.485 624.11L647.301 625.448L645.102 626.764L642.891 628.059L640.668 629.33L638.431 630.579L636.183 631.807L633.922 633.011L631.649 634.194L629.364 635.352L627.067 636.488L624.76 637.602L622.442 638.692L620.113 639.759L617.774 640.802L615.423 641.822L613.063 642.819L610.694 643.791L610.557 643.847L610.292 643.951L610.025 644.052L609.758 644.151L609.49 644.247L609.222 644.341L608.953 644.431L608.682 644.519L608.41 644.604L608.138 644.687L607.864 644.767L607.59 644.844L607.315 644.918L607.04 644.99L606.764 645.058L606.487 645.124L606.21 645.187L605.931 645.248L605.653 645.307L605.372 645.361L605.094 645.413L604.814 645.463L604.532 645.508L604.25 645.554L603.969 645.594L603.687 645.632L603.405 645.667L603.122 645.7L602.839 645.73L602.556 645.756L602.271 645.78L601.988 645.801L601.703 645.819L601.42 645.835L601.136 645.847L600.851 645.856L600.566 645.864L600.282 645.868H599.997L599.712 645.867L599.428 645.862L599.143 645.856L598.86 645.846L598.575 645.832L598.29 645.817L598.007 645.798L597.723 645.777L597.439 645.752L597.156 645.725L596.873 645.695L596.59 645.662L596.308 645.626L596.025 645.587L595.743 645.546L595.463 645.502L595.182 645.456L594.902 645.404L594.623 645.353L594.343 645.297L594.064 645.239L593.787 645.178L593.508 645.114L593.233 645.047L592.956 644.978L592.681 644.906L592.406 644.832L592.132 644.754L591.859 644.674L591.586 644.591L591.315 644.505L591.044 644.416L590.775 644.326L590.507 644.232L590.238 644.136L589.972 644.036L589.707 643.934L589.442 643.83L589.178 643.723L588.915 643.613L588.654 643.5L588.393 643.386L588.134 643.268L587.875 643.148L587.619 643.025L587.363 642.899L587.109 642.772L586.856 642.641L586.604 642.509L586.354 642.373L586.105 642.235L585.857 642.094L585.611 641.951L585.366 641.807L585.123 641.659L584.881 641.508L584.642 641.356L584.402 641.201L584.166 641.043L583.929 640.883L583.696 640.722L583.464 640.556L583.233 640.39L583.004 640.222L582.777 640.05L582.551 639.877L582.326 639.7L582.105 639.523L581.885 639.342L581.667 639.159L581.45 638.974L581.235 638.787L581.022 638.599L580.811 638.408L580.602 638.215L580.394 638.019L580.189 637.822L579.986 637.623L579.786 637.421L579.585 637.217L579.389 637.013L579.194 636.805L579.001 636.595L578.81 636.384L578.621 636.172L578.435 635.956L578.251 635.739L578.069 635.521L577.888 635.301L577.71 635.078L577.534 634.854L577.361 634.628L577.19 634.4L577.02 634.171L576.855 633.941L576.69 633.709L576.528 633.473L576.368 633.238L576.211 633L576.056 632.762L575.904 632.521L575.755 632.279L575.607 632.036L575.461 631.791L575.32 631.545L575.178 631.296L575.041 631.048L574.906 630.798L574.773 630.545L574.644 630.291L574.515 630.037L574.391 629.782L574.268 629.525L574.148 629.267L574.031 629.008L573.916 628.747L573.803 628.485L573.695 628.221L573.588 627.958L573.482 627.694L573.381 627.427L573.282 627.161L573.186 626.892L573.092 626.623L573.002 626.353L572.913 626.083L572.829 625.811L572.746 625.54L572.666 625.265L572.588 624.991L572.514 624.717L572.442 624.441L572.372 624.166L572.306 623.888L572.243 623.611L572.182 623.332L572.124 623.054L572.069 622.775L572.017 622.495L571.967 622.214L571.92 621.934L571.877 621.652L571.836 621.371L571.797 621.089L571.762 620.806L571.729 620.522L571.699 620.239L571.672 619.956L571.648 619.673L571.627 619.39L571.609 619.105L571.592 618.82L571.58 618.537L571.569 618.252L571.562 617.967L571.559 617.682L571.557 617.398V617.215L571.56 616.931L571.566 616.646L571.575 616.361L571.587 616.076L571.603 615.793L571.619 615.508L571.64 615.224L571.663 614.94L571.688 614.657L571.719 614.374L571.75 614.091L571.783 613.809L571.821 613.526L571.862 613.244L571.904 612.962L571.95 612.682L571.999 612.402L572.05 612.122L572.104 611.841L572.161 611.563L572.22 611.284L572.283 611.007L572.348 610.729L572.416 610.452L572.487 610.176L572.56 609.902L572.637 609.628L572.716 609.354L572.798 609.081L572.883 608.81L572.97 608.539L573.059 608.269L573.152 607.999L573.247 607.731L573.345 607.463L573.446 607.198L573.55 606.933L573.655 606.668L573.764 606.404L573.875 606.143L573.988 605.881L574.106 605.622L574.225 605.363L574.345 605.105L574.47 604.849L574.597 604.594L574.726 604.341L574.857 604.088L574.993 603.838L575.129 603.588L575.269 603.339L575.41 603.092L575.555 602.847L575.701 602.603L575.85 602.36L576.002 602.119L576.156 601.879L576.312 601.643L576.471 601.406L576.632 601.171L576.794 600.938L576.96 600.706L577.129 600.477L577.299 600.248L577.472 600.022L577.647 599.797L577.823 599.574L578.002 599.353L578.185 599.134L578.368 598.916L578.554 598.7L578.742 598.487L578.932 598.276L579.124 598.065L579.319 597.857L579.514 597.65L579.713 597.447L579.914 597.245L580.115 597.045L580.32 596.847L580.527 596.65L580.736 596.457L580.945 596.264L581.158 596.074L581.372 595.888L581.588 595.702L581.805 595.518L582.025 595.338L582.247 595.158L582.47 594.982L582.696 594.807L582.921 594.636L583.15 594.465L583.381 594.298L583.611 594.132L583.845 593.97L584.08 593.808L584.318 593.65L584.556 593.495L584.795 593.341L585.036 593.191L585.279 593.042L585.523 592.895L585.768 592.752L586.015 592.611L586.264 592.472L586.514 592.335L586.765 592.201L587.018 592.07L587.271 591.942L587.527 591.815L587.783 591.692L588.041 591.57L588.3 591.452L588.559 591.336L588.821 591.222L589.083 591.112L589.347 591.003L591.189 590.247L593.025 589.472L594.853 588.678L596.673 587.866L598.485 587.038L600.288 586.189L602.081 585.323L603.868 584.44L605.645 583.538L607.412 582.619L609.171 581.682L610.92 580.728L612.659 579.756L614.39 578.766L616.108 577.76L617.818 576.737L619.517 575.696L621.207 574.638L622.885 573.564L624.552 572.473L626.207 571.364L627.854 570.24L629.486 569.1L631.108 567.943L632.72 566.769L634.318 565.58L635.906 564.375L637.479 563.153L639.043 561.918L640.593 560.664L642.129 559.397L643.655 558.115L645.165 556.816L646.664 555.502L648.151 554.175L649.622 552.831L651.082 551.474L652.526 550.101L653.957 548.715L655.374 547.314L656.778 545.899L658.167 544.471L659.542 543.028L660.902 541.572L662.247 540.102L663.578 538.619L664.893 537.122L666.195 535.612L667.481 534.09L668.751 532.555L670.005 531.006L671.245 529.447L672.469 527.874L673.677 526.289L674.869 524.692L676.045 523.083L677.205 521.462L678.348 519.83L679.476 518.186L680.586 516.532L681.681 514.867L682.758 513.19L683.818 511.503L684.862 509.806L685.889 508.098L686.9 506.38L687.891 504.651L688.867 502.914L689.825 501.166L690.765 499.409L691.687 497.642L692.592 495.867L693.479 494.082L694.348 492.289L695.199 490.487L696.032 488.676L696.847 486.857L697.643 485.03L698.422 483.196L699.183 481.354L699.924 479.504L700.647 477.647L701.352 475.782L702.037 473.911L702.704 472.034L703.353 470.149L703.983 468.258L704.593 466.361L705.185 464.457L705.757 462.548L706.31 460.635L706.845 458.714L707.358 456.788L707.854 454.858L708.331 452.922L708.788 450.983L709.226 449.038L709.643 447.09L710.042 445.137L710.42 443.18L710.78 441.22L711.121 439.257L711.44 437.289L711.741 435.319L712.021 433.346L712.283 431.37L712.524 429.392L712.746 427.412L712.948 425.429L713.128 423.443L713.291 421.458L713.433 419.469L713.555 417.48L713.657 415.49L713.74 413.498L713.803 411.506L713.845 409.513L713.868 407.521L713.871 405.528L713.854 403.535L713.817 401.543L713.759 399.55L713.683 397.558L713.586 395.568L713.469 393.579L713.333 391.59L713.177 389.603L713 387.617L712.805 385.635L712.588 383.653L712.353 381.675L712.097 379.698L711.821 377.723L711.526 375.753L711.211 373.785L710.878 371.82L710.524 369.859L710.151 367.902L709.758 365.947L709.345 363.998L708.913 362.051L708.461 360.111L707.989 358.175L707.5 356.242L706.991 354.316L706.461 352.394L705.914 350.477L705.346 348.567L704.76 346.663L704.155 344.764L703.531 342.87L702.888 340.984L702.227 339.105L701.546 337.231L700.846 335.366L700.129 333.507L699.392 331.655L698.638 329.809L697.863 327.973L697.073 326.144L696.262 324.324L695.434 322.511L694.587 320.706L693.724 318.911L692.842 317.124L691.943 315.346L691.024 313.576L690.09 311.816L689.137 310.067L688.167 308.325L687.179 306.594L686.174 304.873L685.151 303.162L684.114 301.462L683.056 299.772L681.984 298.092L680.895 296.424L679.788 294.767L678.666 293.12L677.527 291.484L676.372 289.861L675.2 288.249L674.012 286.649L672.808 285.06L671.59 283.484L670.355 281.92L669.103 280.368L667.838 278.83L666.556 277.303L665.259 275.791L663.947 274.29L662.62 272.803L661.28 271.33L659.923 269.87L658.552 268.423L657.168 266.991L655.769 265.571L654.356 264.167L652.928 262.776L651.487 261.4L650.032 260.038L648.563 258.691L647.081 257.359L645.587 256.041L644.08 254.739L642.558 253.452L641.023 252.18L639.478 250.923L637.918 249.682L636.347 248.456L634.764 247.247L633.169 246.053L631.56 244.875L629.943 243.714L628.311 242.568L626.67 241.44L625.016 240.327L623.352 239.231L621.677 238.152L619.991 237.09L618.295 236.044L616.589 235.016L614.872 234.004L613.144 233.01L611.408 232.034L609.662 231.074L607.906 230.132L606.141 229.208L604.366 228.302L602.583 227.413L600.791 226.542L598.989 225.689L597.18 224.855L595.362 224.038L593.537 223.239L591.704 222.459L589.863 221.698L588.014 220.954L586.158 220.23L584.295 219.523L582.424 218.836L580.548 218.167L578.665 217.517L576.775 216.886L574.878 216.274L572.976 215.681L571.069 215.107L569.155 214.551L567.236 214.016L565.311 213.499L563.382 213.002L561.448 212.524L559.51 212.065L557.565 211.626L555.618 211.206L553.666 210.806L551.711 210.425L549.751 210.064L547.788 209.723L545.821 209.401L543.853 209.099L541.88 208.816L539.905 208.554L537.928 208.311L535.947 208.087L533.966 207.884L531.981 207.701L529.996 207.537L528.009 207.393L526.02 207.269L524.03 207.165L522.041 207.081L520.048 207.017L518.057 206.973L516.064 206.949L514.63 206.943H315.389L315.105 206.945L314.82 206.949L314.535 206.956L314.251 206.966L313.967 206.979L313.682 206.995L313.398 207.013L313.115 207.035L312.831 207.059L312.548 207.086L312.265 207.116L311.982 207.148L311.699 207.184L311.417 207.222L311.136 207.263L310.855 207.307L310.574 207.354L310.294 207.403L310.014 207.456L309.734 207.511L309.456 207.569L309.178 207.63L308.9 207.693L308.623 207.76L308.347 207.829L308.072 207.9L307.797 207.975L307.523 208.052L307.25 208.132L306.978 208.215L306.706 208.301L306.436 208.389L306.166 208.48L305.897 208.573L305.629 208.67L305.362 208.769L305.096 208.87L304.832 208.975L304.568 209.082L304.305 209.191L304.044 209.303L303.783 209.418L303.524 209.535L303.266 209.655L303.009 209.778L302.753 209.903L302.499 210.031L302.246 210.161L301.994 210.294L301.743 210.429L301.494 210.567L301.246 210.707L301 210.85L300.755 210.995L300.512 211.142L300.27 211.292L300.03 211.445L299.791 211.6L299.553 211.757L299.318 211.917L299.084 212.078L298.851 212.243L298.62 212.409L298.391 212.578L298.164 212.749L297.938 212.923L297.714 213.098L297.492 213.276L297.271 213.456L297.053 213.639L296.836 213.823L296.621 214.01L296.408 214.199L296.197 214.39L295.988 214.583L295.78 214.778L295.575 214.975L295.372 215.174L295.17 215.376L294.971 215.579L294.774 215.784L294.579 215.991L294.385 216.2L294.194 216.411L294.005 216.624L293.819 216.839L293.634 217.056L293.452 217.274L293.271 217.495L293.093 217.717L292.917 217.941L292.744 218.166L292.573 218.394L292.404 218.623L292.237 218.854L292.072 219.086L291.91 219.32L291.751 219.556L291.593 219.793L291.438 220.032L291.286 220.272L291.136 220.514L290.988 220.757L290.843 221.002L290.7 221.249L290.559 221.496L290.421 221.745L290.286 221.996L290.153 222.247L290.023 222.501L289.895 222.755L289.77 223.011L289.647 223.267L289.527 223.526L289.409 223.785L289.294 224.045L289.182 224.307L289.072 224.57L288.965 224.833L288.861 225.098L288.759 225.364L288.659 225.631L288.563 225.899L288.469 226.168L288.378 226.437L288.29 226.708L288.204 226.98L288.121 227.252L288.041 227.525L287.963 227.799L287.889 228.074L287.817 228.349L287.747 228.625L287.681 228.902L287.617 229.18L287.556 229.458L287.498 229.736L287.443 230.016L287.39 230.296L287.34 230.576L287.293 230.857L287.249 231.138L287.208 231.42L287.169 231.702L287.134 231.984L287.101 232.267L287.071 232.55L287.043 232.834L287.019 233.117L286.997 233.401L286.979 233.685L286.963 233.97L286.95 234.254L286.94 234.539L286.932 234.823L286.928 235.108L286.926 235.393V235.415V684.054L286.928 684.339L286.932 684.623L286.939 684.908L286.949 685.193L286.962 685.478L286.977 685.761L286.996 686.046L287.017 686.329L287.041 686.614L287.068 686.897L287.098 687.18L287.131 687.463L287.166 687.745L287.205 688.027L287.246 688.309L287.29 688.59L287.336 688.871L287.386 689.151L287.438 689.431L287.494 689.711L287.551 689.99L287.612 690.267L287.676 690.545L287.742 690.822L287.811 691.099L287.883 691.373L287.957 691.649L288.035 691.923L288.115 692.196L288.197 692.469L288.283 692.74L288.371 693.011L288.462 693.281L288.556 693.549L288.652 693.817L288.751 694.084L288.852 694.35L288.956 694.615L289.063 694.879L289.173 695.141L289.285 695.403L289.4 695.664L289.517 695.923L289.637 696.181L289.76 696.438L289.885 696.695L290.012 696.949L290.143 697.202L290.275 697.454L290.411 697.704L290.548 697.954L290.688 698.201L290.831 698.448L290.976 698.692L291.124 698.936L291.274 699.178L291.426 699.419L291.581 699.658L291.738 699.895L291.898 700.131L292.06 700.365L292.224 700.597L292.39 700.829L292.559 701.058L292.73 701.285L292.904 701.511L293.079 701.734L293.257 701.957L293.437 702.177L293.619 702.396L293.804 702.613L293.991 702.828L294.179 703.041L294.37 703.253L294.563 703.462L294.758 703.669L294.955 703.875L295.154 704.079L295.263 704.187L295.465 704.387L295.669 704.585L295.876 704.782L296.084 704.977L296.294 705.168L296.506 705.358L296.72 705.546L296.936 705.731L297.153 705.915L297.373 706.096L297.594 706.275L297.817 706.452L298.042 706.626L298.268 706.8L298.496 706.97L298.726 707.137L298.958 707.303L299.191 707.465L299.426 707.627L299.663 707.785L299.9 707.942L300.14 708.095L300.381 708.246L300.624 708.395L300.868 708.541L301.113 708.686L301.36 708.827L301.609 708.966L301.858 709.103L302.109 709.237L302.362 709.368L302.616 709.498L302.871 709.625L303.127 709.748L303.384 709.87L303.643 709.989L303.903 710.105L304.164 710.218L304.426 710.33L304.689 710.438L304.953 710.544L305.219 710.646L305.485 710.747L305.752 710.845L306.021 710.94L306.29 711.032L306.56 711.122L306.831 711.208L307.103 711.292L307.376 711.374L307.649 711.454L307.924 711.529L308.199 711.603L308.474 711.674L308.751 711.741L309.028 711.806L309.306 711.868L309.584 711.928L309.863 711.984L310.142 712.038L310.422 712.089L310.703 712.138L310.984 712.183L311.265 712.225L311.547 712.266L311.829 712.302L312.112 712.336L312.395 712.368L312.678 712.397L312.961 712.422L313.245 712.445L313.529 712.464L313.813 712.483L314.097 712.496L314.382 712.508L314.666 712.517L314.951 712.523L315.236 712.526H315.52L315.805 712.523L316.089 712.517L316.374 712.51L316.658 712.498L316.943 712.484L317.227 712.466L317.511 712.446L317.794 712.424L318.078 712.398L318.361 712.371L318.644 712.339L318.927 712.305L319.209 712.269L319.491 712.229L319.772 712.186L320.053 712.141L320.334 712.094L320.614 712.043L320.893 711.988L321.172 711.933L321.451 711.872L321.729 711.811L322.006 711.746L322.282 711.678L322.558 711.609L322.833 711.535L323.107 711.46L323.381 711.381L323.654 711.3L323.926 711.216L324.197 711.128L324.467 711.039L324.736 710.947L325.005 710.852L325.272 710.754L325.539 710.655L325.804 710.551L326.068 710.446L326.332 710.339L326.594 710.227L326.855 710.114L327.115 709.998L327.374 709.879L327.631 709.759L327.887 709.635L328.143 709.509L328.396 709.379L328.649 709.248L328.9 709.114L329.15 708.978L329.398 708.838L329.645 708.698L329.891 708.553L330.135 708.407L330.378 708.258L330.619 708.107L330.859 707.954L331.097 707.798L331.334 707.64L331.569 707.479L331.802 707.316L332.034 707.151L332.264 706.983L332.492 706.813L332.719 706.641L332.944 706.467L333.167 706.289L333.388 706.111L333.608 705.929L333.826 705.746L334.041 705.561L334.256 705.373L334.468 705.183L334.678 704.992L334.886 704.797L335.093 704.601L335.297 704.403L335.5 704.204L335.7 704L335.898 703.797L336.095 703.59L336.289 703.383L336.481 703.172L336.671 702.961L336.859 702.747L337.045 702.531L337.229 702.313L337.41 702.094L337.589 701.873L337.766 701.65L337.941 701.425L338.114 701.198L338.284 700.97L338.452 700.74L338.618 700.509L338.781 700.276L338.942 700.041L339.1 699.804L339.257 699.566L339.411 699.327L339.562 699.086L339.711 698.843L339.858 698.599L340.002 698.355L340.144 698.108L340.283 697.859L340.42 697.609L340.554 697.358L340.686 697.106L340.815 696.853L340.942 696.597L341.066 696.341L341.187 696.083L341.306 695.825L341.422 695.565L341.536 695.304L341.647 695.042L341.756 694.778L341.862 694.515L341.965 694.249L342.066 693.983L342.164 693.716L342.259 693.448L342.351 693.178L342.441 692.907L342.528 692.637L342.613 692.365L342.695 692.092L342.773 691.819L342.85 691.543L342.923 691.269L342.994 690.994L343.062 690.716L343.127 690.439L343.19 690.162L343.249 689.883L343.306 689.604L343.36 689.326L343.412 689.045L343.46 688.764L343.506 688.483L343.549 688.202L343.589 687.92L343.626 687.638L343.66 687.355L343.692 687.072L343.721 686.789L343.747 686.505L343.77 686.222L343.79 685.937L343.807 685.654L343.822 685.369L343.834 685.085L343.843 684.8L343.849 684.515L343.852 684.23L343.852 684.054V292.359V292.337L343.854 292.052L343.858 291.767L343.866 291.482L343.876 291.198L343.889 290.913L343.905 290.628L343.924 290.345L343.945 290.06L343.97 289.777L343.997 289.494L344.027 289.21L344.06 288.927L344.095 288.645L344.134 288.364L344.175 288.082L344.219 287.8L344.266 287.52L344.316 287.24L344.369 286.959L344.424 286.681L344.482 286.402L344.543 286.123L344.607 285.846L344.674 285.569L344.743 285.293L344.815 285.017L344.89 284.743L344.967 284.469L345.047 284.195L345.13 283.924L345.216 283.651L345.304 283.381L345.395 283.112L345.489 282.842L345.586 282.575L345.685 282.307L345.787 282.042L345.891 281.777L345.998 281.513L346.108 281.251L346.22 280.989L346.335 280.728L346.453 280.469L346.573 280.211L346.696 279.954L346.821 279.699L346.949 279.444L347.079 279.191L347.212 278.94L347.348 278.688L347.485 278.439L347.626 278.192L347.769 277.945L347.914 277.701L348.062 277.457L348.212 277.216L348.365 276.975L348.52 276.737L348.677 276.499L348.837 276.264L348.999 276.029L349.163 275.797L349.33 275.566L349.499 275.337L349.67 275.11L349.844 274.884L350.02 274.661L350.198 274.438L350.378 274.218L350.56 273.999L350.745 273.782L350.932 273.569L351.121 273.355L351.312 273.144L351.505 272.934L351.7 272.728L351.897 272.523L352.097 272.32L352.298 272.118L352.501 271.919L352.707 271.721L352.914 271.526L353.123 271.333L353.334 271.143L353.547 270.953L353.762 270.766L353.979 270.582L354.197 270.4L354.417 270.219L354.64 270.042L354.865 269.867L355.091 269.693L355.318 269.522L355.547 269.353L355.777 269.186L356.009 269.022L356.244 268.86L356.479 268.701L356.717 268.542L356.955 268.389L357.196 268.237L357.439 268.086L357.681 267.938L357.927 267.794L358.172 267.65L358.421 267.51L358.669 267.372L358.919 267.238L359.172 267.105L359.425 266.974L359.68 266.846L359.934 266.721L360.192 266.599L360.449 266.478L360.709 266.361L360.969 266.246L361.231 266.135L361.495 266.025L361.758 265.918L362.023 265.814L362.288 265.711L362.555 265.614L362.823 265.517L363.093 265.424L363.362 265.332L363.632 265.244L363.905 265.159L364.176 265.076L364.45 264.996L364.724 264.919L364.998 264.844L365.274 264.772L365.549 264.703L365.826 264.637L366.104 264.573L366.382 264.512L366.661 264.454L366.94 264.399L367.22 264.347L367.5 264.297L367.78 264.251L368.062 264.207L368.343 264.166L368.625 264.127L368.908 264.092L369.191 264.059L369.474 264.029L369.758 264.002L370.041 263.978L370.324 263.957L370.609 263.938L370.893 263.922L371.176 263.91L371.461 263.9L371.746 263.893L372.03 263.888L372.315 263.887H514.63L515.221 263.888L516.644 263.901L518.067 263.928L519.489 263.97L520.911 264.026L522.333 264.096L523.753 264.18L525.173 264.278L526.592 264.391L528.009 264.517L529.425 264.658L530.84 264.813L532.252 264.982L533.664 265.166L535.073 265.363L536.482 265.574L537.887 265.8L539.289 266.04L540.69 266.293L542.088 266.561L543.482 266.843L544.874 267.138L546.263 267.449L547.65 267.771L549.033 268.109L550.411 268.46L551.787 268.824L553.16 269.202L554.527 269.596L555.892 270.001L557.25 270.421L558.607 270.854L559.958 271.301L561.305 271.761L562.647 272.234L563.984 272.722L565.316 273.222L566.644 273.736L567.965 274.262L569.283 274.802L570.593 275.355L571.899 275.922L573.199 276.502L574.493 277.094L575.782 277.698L577.064 278.317L578.34 278.947L579.609 279.592L580.872 280.247L582.128 280.916L583.378 281.597L584.62 282.292L585.855 282.999L587.084 283.717L588.306 284.448L589.52 285.191L590.726 285.945L591.924 286.714L593.115 287.493L594.299 288.284L595.474 289.087L596.641 289.9L597.801 290.726L598.952 291.565L600.093 292.413L601.227 293.274L602.353 294.146L603.469 295.029L604.576 295.924L605.674 296.828L606.763 297.745L607.843 298.672L608.913 299.609L609.975 300.558L611.027 301.516L612.069 302.487L613.102 303.466L614.125 304.456L615.137 305.456L616.139 306.467L617.131 307.487L618.113 308.518L619.086 309.557L620.047 310.608L620.997 311.667L621.937 312.735L622.867 313.814L623.785 314.901L624.694 315.997L625.59 317.103L626.475 318.217L627.35 319.34L628.214 320.471L629.064 321.612L629.905 322.761L630.735 323.919L631.551 325.085L632.357 326.258L633.151 327.44L633.932 328.628L634.702 329.826L635.461 331.031L636.207 332.243L636.94 333.463L637.662 334.691L638.371 335.925L639.067 337.166L639.752 338.414L640.424 339.669L641.084 340.93L641.73 342.198L642.364 343.473L642.985 344.754L643.593 346.04L644.188 347.335L644.771 348.633L645.34 349.938L645.896 351.247L646.44 352.564L646.97 353.885L647.486 355.211L647.991 356.543L648.481 357.879L648.958 359.22L649.42 360.566L649.871 361.917L650.308 363.272L650.729 364.631L651.139 365.994L651.535 367.362L651.916 368.733L652.285 370.109L652.639 371.487L652.979 372.87L653.306 374.255L653.62 375.644L653.918 377.036L654.202 378.43L654.474 379.828L654.731 381.228L654.974 382.63L655.204 384.036L655.418 385.443L655.62 386.852L655.807 388.264L655.978 389.677L656.138 391.092L656.283 392.508L656.412 393.926L656.528 395.345L656.63 396.764L656.718 398.185L656.792 399.607L656.85 401.029L656.896 402.452L656.926 403.875L656.942 405.299L656.945 406.723L656.933 408.145L656.908 409.569L656.867 410.993L656.813 412.415L656.743 413.837L656.661 415.258L656.564 416.679L656.453 418.098L656.326 419.516L656.186 420.932L656.032 422.347L655.865 423.761L655.683 425.173L655.486 426.583L655.276 427.99L655.052 429.396L654.812 430.8L654.561 432.201L654.294 433.6L654.014 434.995L653.719 436.388L653.412 437.778L653.089 439.164L652.754 440.547L652.403 441.927L652.04 443.304L651.662 444.676L651.272 446.044L650.866 447.409L650.448 448.77L650.017 450.127L649.571 451.479L649.112 452.827L648.64 454.17L648.154 455.507L647.655 456.841L647.142 458.168L646.616 459.491L646.078 460.809L645.525 462.122L644.961 463.428L644.382 464.728L643.792 466.024L643.186 467.312L642.57 468.596L641.941 469.872L641.298 471.142L640.642 472.406L639.975 473.664L639.294 474.914L638.603 476.157L637.897 477.394L637.18 478.624L636.451 479.846L635.708 481.06L634.954 482.268L634.189 483.468L633.41 484.659L632.621 485.843L631.819 487.02L631.006 488.188L630.181 489.348L629.345 490.5L628.497 491.644L627.637 492.778L626.766 493.904L625.883 495.022L624.99 496.129L624.087 497.229L623.172 498.32L622.246 499.4L621.309 500.473L620.362 501.535L619.404 502.588L618.435 503.631L617.456 504.664L616.468 505.689L615.468 506.701L614.459 507.705L613.441 508.699L612.411 509.683L611.373 510.655L610.323 511.617L609.266 512.57L608.198 513.511L607.121 514.441L606.035 515.361L604.939 516.27L603.835 517.168L602.722 518.055L601.599 518.931L600.468 519.794L599.33 520.648L598.182 521.489L597.025 522.319L595.861 523.137L594.688 523.945L593.507 524.739L592.318 525.522L591.123 526.293L589.919 527.053L588.707 527.799L587.488 528.534L586.262 529.257L585.029 529.967L583.789 530.666L582.542 531.351L581.287 532.023L580.027 532.685L578.76 533.332L577.486 533.967L576.205 534.589L574.919 535.199L573.627 535.796L572.33 536.379L571.026 536.95L569.717 537.507L568.402 538.053L567.081 538.583L565.756 539.101L564.424 539.606L563.09 540.097L561.749 540.576L560.403 541.04L559.053 541.491L557.699 541.929L556.341 542.353L554.977 542.764L553.611 543.16L552.241 543.543L550.866 543.912L549.487 544.267L548.106 544.61L546.722 544.938L545.333 545.251L543.942 545.553L542.549 545.839L541.151 546.11L539.752 546.369L538.349 546.613L538.069 546.662L537.789 546.714L537.51 546.768L537.232 546.826L536.953 546.886L536.676 546.948L536.399 547.014L536.122 547.082L535.846 547.153L535.572 547.227L535.298 547.303L535.024 547.383L534.751 547.465L534.48 547.55L534.209 547.638L533.939 547.728L533.67 547.82L533.402 547.917L533.135 548.014L532.868 548.115L532.603 548.219L532.34 548.325L532.076 548.435L531.814 548.546L531.553 548.659L531.294 548.777L531.035 548.896L530.779 549.018L530.523 549.141L530.269 549.269L530.014 549.399L529.763 549.53L529.511 549.666L529.263 549.803L529.014 549.941L528.767 550.085L528.522 550.229L528.279 550.375L528.037 550.525L527.796 550.677L527.556 550.832L527.318 550.989L527.082 551.147L526.848 551.308L526.615 551.472L526.384 551.638L526.154 551.807L525.926 551.977L525.7 552.15L525.476 552.325L525.253 552.503L525.032 552.682L524.813 552.863L524.596 553.047L524.38 553.233L524.167 553.422L523.955 553.612L523.746 553.804L523.538 553.999L523.331 554.196L523.128 554.395L522.926 554.595L522.726 554.797L522.529 555.002L522.333 555.21L522.138 555.418L521.947 555.629L521.757 555.841L521.571 556.055L521.385 556.272L521.203 556.489L521.022 556.709L520.843 556.931L520.667 557.155L520.492 557.38L520.32 557.607L520.152 557.836L519.983 558.067L519.819 558.297L519.656 558.532L519.495 558.767L519.338 559.004L519.182 559.242L519.03 559.481L518.878 559.724L518.73 559.967L518.584 560.211L518.441 560.456L518.299 560.705L518.161 560.953L518.025 561.203L517.891 561.455L517.76 561.707L517.632 561.961L517.505 562.216L517.382 562.474L517.261 562.731L517.144 562.99L517.028 563.249L516.915 563.512L516.805 563.774L516.697 564.037L516.591 564.301L516.489 564.568L516.389 564.834L516.291 565.101L516.198 565.371L516.106 565.641L516.017 565.91L515.93 566.181L515.847 566.454L515.766 566.727L515.687 567.001L515.612 567.275L515.54 567.549L515.469 567.827L515.403 568.102L515.338 568.38L515.276 568.658L515.218 568.937L515.162 569.216L515.108 569.496L515.058 569.776L515.01 570.056L514.965 570.338L514.922 570.618L514.883 570.902L514.847 571.183L514.814 571.467L514.782 571.75L514.755 572.033L514.73 572.316L514.707 572.6L514.687 572.884L514.671 573.168L514.657 573.452L514.647 573.737L514.639 574.022L514.633 574.307L514.63 574.591V574.686V707.642Z" fill="#FF2E63"></path>
<path fill-rule="evenodd" clip-rule="evenodd" d="M457.704 520.133V684.054V684.208L457.701 684.492L457.695 684.777L457.686 685.062L457.676 685.347L457.661 685.631L457.644 685.915L457.623 686.199L457.601 686.483L457.575 686.766L457.546 687.049L457.515 687.332L457.482 687.616L457.444 687.897L457.405 688.179L457.361 688.461L457.316 688.743L457.268 689.023L457.216 689.303L457.162 689.582L457.106 689.862L457.046 690.139L456.984 690.418L456.92 690.695L456.852 690.971L456.781 691.247L456.707 691.522L456.632 691.797L456.554 692.071L456.472 692.344L456.388 692.615L456.301 692.886L456.21 693.157L456.118 693.425L456.024 693.693L455.926 693.962L455.826 694.228L455.722 694.493L455.617 694.757L455.508 695.021L455.397 695.283L455.284 695.544L455.168 695.804L455.049 696.063L454.927 696.321L454.804 696.577L454.677 696.832L454.549 697.086L454.416 697.338L454.282 697.59L454.147 697.84L454.007 698.088L453.865 698.334L453.722 698.581L453.575 698.825L453.427 699.068L453.275 699.309L453.121 699.548L452.965 699.786L452.806 700.023L452.647 700.258L452.483 700.491L452.317 700.722L452.15 700.952L451.979 701.18L451.808 701.407L451.633 701.632L451.455 701.855L451.276 702.076L451.095 702.296L450.912 702.513L450.726 702.73L450.538 702.944L450.348 703.155L450.157 703.366L449.963 703.574L449.767 703.78L449.568 703.985L449.368 704.187L449.243 704.311L449.039 704.511L448.835 704.707L448.627 704.903L448.417 705.096L448.205 705.285L447.993 705.475L447.777 705.661L447.56 705.846L447.342 706.028L447.121 706.208L446.899 706.385L446.675 706.56L446.449 706.733L446.221 706.905L445.992 707.074L445.76 707.24L445.529 707.404L445.294 707.566L445.059 707.725L444.821 707.883L444.583 708.037L444.342 708.189L444.099 708.339L443.857 708.487L443.611 708.632L443.364 708.773L443.117 708.913L442.867 709.052L442.617 709.186L442.366 709.319L442.113 709.45L441.858 709.576L441.602 709.701L441.344 709.823L441.087 709.944L440.826 710.061L440.566 710.176L440.305 710.288L440.042 710.397L439.778 710.503L439.513 710.607L439.248 710.709L438.98 710.807L438.712 710.904L438.444 710.997L438.174 711.087L437.903 711.176L437.632 711.261L437.359 711.344L437.085 711.423L436.812 711.5L436.537 711.576L436.261 711.646L435.985 711.716L435.708 711.782L435.431 711.845L435.153 711.906L434.874 711.963L434.595 712.019L434.315 712.07L434.035 712.119L433.753 712.166L433.473 712.21L433.191 712.251L432.908 712.288L432.627 712.324L432.344 712.356L432.06 712.386L431.777 712.413L431.494 712.437L431.209 712.459L430.926 712.477L430.642 712.492L430.357 712.504L430.072 712.514L429.788 712.52L429.503 712.525L429.218 712.526L428.934 712.525L428.649 712.52L428.366 712.513L428.081 712.502L427.796 712.49L427.512 712.474L427.229 712.455L426.944 712.433L426.661 712.409L426.378 712.382L426.094 712.352L425.811 712.318L425.53 712.282L425.248 712.245L424.966 712.202L424.685 712.159L424.403 712.112L424.123 712.062L423.844 712.01L423.564 711.954L423.285 711.897L423.008 711.835L422.731 711.772L422.454 711.705L422.178 711.636L421.903 711.564L421.627 711.488L421.355 711.411L421.08 711.33L420.808 711.247L420.537 711.161L420.267 711.074L419.997 710.982L419.728 710.889L419.46 710.792L419.193 710.693L418.928 710.592L418.663 710.486L418.399 710.379L418.137 710.269L417.875 710.158L417.615 710.042L417.356 709.924L417.098 709.804L416.84 709.682L416.584 709.557L416.331 709.429L416.078 709.298L415.825 709.165L415.575 709.029L415.327 708.892L415.08 708.751L414.833 708.609L414.589 708.463L414.345 708.315L414.104 708.165L413.863 708.012L413.625 707.857L413.387 707.701L413.152 707.541L412.917 707.378L412.685 707.214L412.455 707.047L412.226 706.878L411.998 706.706L411.772 706.533L411.548 706.357L411.326 706.179L411.107 705.998L410.888 705.816L410.671 705.632L410.456 705.445L410.243 705.255L410.033 705.064L409.823 704.871L409.617 704.677L409.411 704.479L409.207 704.279L409.007 704.079L408.808 703.875L408.611 703.669L408.415 703.462L408.222 703.253L408.031 703.041L407.843 702.828L407.656 702.613L407.472 702.396L407.29 702.177L407.109 701.957L406.931 701.734L406.755 701.511L406.582 701.285L406.412 701.058L406.243 700.829L406.076 700.597L405.912 700.365L405.751 700.131L405.591 699.895L405.433 699.658L405.279 699.419L405.125 699.178L404.976 698.937L404.829 698.692L404.683 698.448L404.541 698.201L404.401 697.954L404.262 697.704L404.127 697.454L403.994 697.202L403.865 696.949L403.737 696.695L403.612 696.439L403.49 696.181L403.369 695.923L403.252 695.664L403.137 695.404L403.026 695.141L402.916 694.879L402.809 694.616L402.705 694.35L402.603 694.084L402.505 693.817L402.408 693.549L402.313 693.281L402.223 693.011L402.136 692.74L402.05 692.469L401.967 692.196L401.887 691.923L401.809 691.649L401.735 691.373L401.663 691.099L401.594 690.822L401.527 690.545L401.464 690.267L401.404 689.99L401.347 689.711L401.291 689.431L401.238 689.151L401.188 688.871L401.142 688.591L401.098 688.309L401.057 688.027L401.018 687.745L400.984 687.464L400.95 687.18L400.92 686.897L400.893 686.614L400.869 686.329L400.848 686.046L400.83 685.761L400.813 685.478L400.801 685.193L400.791 684.908L400.785 684.624L400.78 684.339L400.779 684.054V349.302V349.28L400.78 348.995L400.785 348.71L400.792 348.425L400.803 348.141L400.815 347.856L400.831 347.573L400.849 347.288L400.871 347.005L400.896 346.72L400.923 346.437L400.953 346.153L400.987 345.872L401.021 345.588L401.06 345.307L401.101 345.025L401.146 344.743L401.193 344.463L401.243 344.183L401.295 343.902L401.351 343.624L401.408 343.345L401.47 343.066L401.533 342.789L401.6 342.512L401.669 342.236L401.741 341.96L401.815 341.686L401.893 341.412L401.973 341.139L402.056 340.867L402.142 340.595L402.231 340.324L402.321 340.055L402.416 339.786L402.512 339.518L402.612 339.252L402.713 338.985L402.817 338.72L402.925 338.456L403.033 338.194L403.146 337.932L403.261 337.671L403.378 337.412L403.499 337.154L403.622 336.898L403.747 336.642L403.875 336.387L404.005 336.134L404.139 335.883L404.273 335.633L404.412 335.383L404.552 335.135L404.695 334.89L404.841 334.644L404.988 334.402L405.138 334.159L405.291 333.918L405.446 333.68L405.603 333.443L405.763 333.207L405.925 332.973L406.089 332.74L406.257 332.509L406.425 332.28L406.596 332.053L406.77 331.828L406.945 331.604L407.124 331.382L407.303 331.161L407.486 330.942L407.671 330.726L407.858 330.512L408.046 330.298L408.237 330.087L408.432 329.879L408.626 329.671L408.823 329.466L409.022 329.263L409.224 329.061L409.427 328.862L409.632 328.664L409.84 328.47L410.049 328.277L410.26 328.086L410.474 327.898L410.688 327.711L410.905 327.525L411.123 327.343L411.344 327.164L411.566 326.986L411.79 326.81L412.016 326.637L412.244 326.465L412.473 326.296L412.703 326.13L412.937 325.966L413.17 325.803L413.406 325.644L413.643 325.487L413.882 325.332L414.122 325.18L414.364 325.029L414.608 324.881L414.852 324.737L415.099 324.594L415.346 324.453L415.595 324.316L415.846 324.181L416.098 324.048L416.351 323.917L416.606 323.79L416.862 323.665L417.118 323.542L417.377 323.423L417.636 323.305L417.896 323.191L418.157 323.078L418.42 322.968L418.684 322.861L418.949 322.757L419.214 322.656L419.481 322.557L419.749 322.46L420.019 322.367L420.288 322.276L420.559 322.187L420.83 322.102L421.103 322.019L421.376 321.939L421.65 321.862L421.924 321.787L422.199 321.716L422.475 321.647L422.752 321.58L423.029 321.517L423.308 321.455L423.587 321.398L423.865 321.342L424.145 321.291L424.426 321.241L424.707 321.195L424.987 321.149L425.269 321.109L425.552 321.071L425.834 321.035L426.117 321.002L426.4 320.973L426.683 320.946L426.966 320.922L427.251 320.901L427.534 320.881L427.819 320.866L428.104 320.853L428.388 320.844L428.673 320.836L428.956 320.831L429.241 320.83H514.63H514.767L515.621 320.836L516.474 320.85L517.328 320.874L518.182 320.904L519.034 320.944L519.887 320.993L520.739 321.05L521.59 321.115L522.441 321.189L523.291 321.271L524.14 321.362L524.988 321.461L525.835 321.568L526.681 321.686L527.526 321.809L528.369 321.943L529.211 322.085L530.052 322.234L530.891 322.394L531.728 322.56L532.564 322.736L533.399 322.92L534.23 323.111L535.06 323.311L535.888 323.519L536.714 323.736L537.538 323.961L538.36 324.194L539.178 324.435L539.996 324.685L540.809 324.943L541.621 325.21L542.43 325.484L543.235 325.766L544.038 326.055L544.838 326.353L545.636 326.661L546.43 326.974L547.221 327.296L548.008 327.626L548.792 327.964L549.573 328.309L550.351 328.663L551.125 329.025L551.894 329.394L552.661 329.77L553.423 330.154L554.182 330.546L554.937 330.945L555.688 331.352L556.434 331.767L557.177 332.188L557.915 332.618L558.65 333.055L559.379 333.498L560.103 333.95L560.824 334.408L561.54 334.873L562.251 335.346L562.957 335.827L563.659 336.314L564.355 336.808L565.048 337.308L565.733 337.816L566.415 338.331L567.092 338.852L567.763 339.38L568.429 339.914L569.089 340.457L569.744 341.004L570.393 341.558L571.038 342.12L571.675 342.687L572.307 343.261L572.934 343.841L573.556 344.427L574.171 345.02L574.779 345.619L575.383 346.223L575.98 346.834L576.571 347.451L577.156 348.073L577.734 348.701L578.307 349.335L578.871 349.976L579.432 350.621L579.984 351.271L580.53 351.928L581.07 352.59L581.604 353.257L582.129 353.929L582.649 354.607L583.161 355.291L583.667 355.978L584.167 356.671L584.658 357.37L585.145 358.072L585.622 358.78L586.093 359.493L586.557 360.21L587.014 360.932L587.463 361.658L587.905 362.389L588.339 363.124L588.767 363.864L589.187 364.607L589.6 365.355L590.005 366.107L590.403 366.863L590.791 367.623L591.174 368.387L591.549 369.154L591.916 369.925L592.275 370.701L592.626 371.478L592.971 372.26L593.307 373.047L593.633 373.835L593.954 374.627L594.266 375.421L594.57 376.22L594.867 377.021L595.155 377.824L595.435 378.632L595.706 379.441L595.971 380.254L596.227 381.068L596.474 381.886L596.713 382.706L596.944 383.528L597.167 384.352L597.382 385.18L597.589 386.008L597.787 386.838L597.977 387.672L598.158 388.506L598.331 389.342L598.497 390.182L598.652 391.021L598.801 391.861L598.94 392.705L599.071 393.549L599.194 394.394L599.309 395.241L599.414 396.088L599.512 396.936L599.601 397.786L599.681 398.637L599.753 399.488L599.816 400.339L599.87 401.192L599.917 402.045L599.955 402.898L599.983 403.752L600.004 404.606L600.017 405.459L600.02 406.313L600.015 407.167L600.001 408.022L599.979 408.876L599.949 409.729L599.91 410.583L599.863 411.436L599.806 412.287L599.741 413.14L599.669 413.991L599.587 414.841L599.497 415.69L599.397 416.539L599.291 417.385L599.175 418.232L599.051 419.077L598.919 419.921L598.777 420.763L598.628 421.604L598.471 422.443L598.304 423.282L598.129 424.118L597.947 424.952L597.756 425.785L597.557 426.615L597.349 427.444L597.132 428.269L596.908 429.093L596.676 429.916L596.435 430.736L596.186 431.552L595.929 432.367L595.664 433.179L595.391 433.988L595.109 434.794L594.82 435.597L594.522 436.399L594.216 437.196L593.903 437.991L593.582 438.782L593.252 439.57L592.916 440.355L592.571 441.137L592.218 441.915L591.858 442.689L591.49 443.459L591.114 444.226L590.731 444.99L590.339 445.749L589.94 446.504L589.534 447.256L589.121 448.003L588.699 448.746L588.271 449.484L587.835 450.219L587.392 450.948L586.941 451.675L586.484 452.396L586.018 453.112L585.547 453.823L585.068 454.531L584.581 455.233L584.087 455.931L583.587 456.622L583.081 457.309L582.566 457.992L582.046 458.668L581.518 459.34L580.985 460.006L580.444 460.668L579.896 461.323L579.343 461.974L578.783 462.619L578.215 463.258L577.642 463.89L577.062 464.517L576.477 465.139L575.885 465.756L575.287 466.364L574.683 466.968L574.073 467.567L573.457 468.157L572.835 468.743L572.208 469.322L571.574 469.894L570.935 470.461L570.291 471.021L569.64 471.574L568.985 472.121L568.322 472.662L567.656 473.195L566.985 473.723L566.307 474.244L565.625 474.756L564.938 475.264L564.245 475.763L563.548 476.255L562.846 476.742L562.138 477.221L561.425 477.693L560.71 478.157L559.989 478.615L559.263 479.064L558.532 479.507L557.799 479.942L557.059 480.37L556.316 480.792L555.568 481.205L554.818 481.61L554.062 482.009L553.303 482.399L552.539 482.782L551.772 483.157L551.001 483.525L550.227 483.885L549.448 484.237L548.668 484.581L547.883 484.918L547.094 485.247L546.303 485.568L545.508 485.881L544.711 486.185L543.91 486.482L543.107 486.772L542.3 487.052L541.491 487.325L540.679 487.59L539.865 487.846L539.048 488.094L538.229 488.334L537.406 488.566L536.583 488.79L535.756 489.006L534.927 489.212L534.097 489.411L533.265 489.603L532.432 489.785L531.596 489.958L530.757 490.124L529.918 490.28L529.077 490.43L528.235 490.57L527.39 490.702L526.545 490.824L525.701 490.94L524.853 491.046L524.005 491.144L523.155 491.234L522.306 491.316L521.455 491.388L520.604 491.451L519.751 491.507L518.899 491.554L518.045 491.593L517.192 491.623L516.338 491.644L515.484 491.656L514.63 491.661H486.168L485.883 491.662L485.599 491.667L485.314 491.674L485.029 491.683L484.745 491.697L484.462 491.712L484.177 491.73L483.894 491.752L483.609 491.777L483.326 491.804L483.043 491.832L482.76 491.865L482.478 491.902L482.196 491.939L481.915 491.98L481.633 492.024L481.353 492.072L481.071 492.12L480.793 492.173L480.512 492.229L480.234 492.286L479.957 492.348L479.678 492.411L479.402 492.477L479.125 492.546L478.851 492.617L478.575 492.693L478.301 492.769L478.029 492.849L477.756 492.932L477.485 493.018L477.214 493.105L476.944 493.197L476.676 493.291L476.408 493.387L476.141 493.487L475.875 493.588L475.61 493.692L475.346 493.798L475.084 493.908L474.822 494.02L474.561 494.136L474.302 494.252L474.043 494.373L473.787 494.495L473.531 494.62L473.277 494.748L473.024 494.879L472.772 495.011L472.522 495.147L472.272 495.284L472.025 495.424L471.778 495.567L471.534 495.712L471.29 495.86L471.049 496.01L470.808 496.162L470.569 496.318L470.332 496.474L470.096 496.634L469.862 496.795L469.63 496.959L469.398 497.127L469.169 497.295L468.942 497.467L468.716 497.64L468.493 497.815L468.27 497.993L468.05 498.174L467.832 498.356L467.615 498.54L467.4 498.727L467.186 498.917L466.975 499.106L466.766 499.301L466.559 499.495L466.353 499.692L466.15 499.891L465.949 500.093L465.749 500.297L465.552 500.501L465.357 500.708L465.164 500.917L464.973 501.128L464.783 501.342L464.597 501.556L464.413 501.773L464.231 501.992L464.05 502.211L463.872 502.434L463.696 502.657L463.523 502.883L463.351 503.111L463.182 503.34L463.015 503.57L462.851 503.804L462.688 504.038L462.529 504.273L462.372 504.511L462.217 504.749L462.065 504.99L461.914 505.231L461.767 505.475L461.62 505.719L461.477 505.966L461.337 506.213L461.2 506.463L461.065 506.713L460.932 506.965L460.801 507.218L460.673 507.473L460.548 507.727L460.425 507.985L460.306 508.243L460.188 508.502L460.072 508.762L459.961 509.024L459.851 509.287L459.744 509.55L459.638 509.815L459.537 510.082L459.438 510.349L459.342 510.615L459.248 510.885L459.156 511.155L459.068 511.426L458.983 511.697L458.899 511.97L458.819 512.243L458.742 512.517L458.667 512.791L458.595 513.067L458.525 513.342L458.459 513.62L458.396 513.897L458.334 514.176L458.277 514.454L458.221 514.733L458.168 515.013L458.119 515.294L458.072 515.574L458.028 515.856L457.986 516.137L457.948 516.419L457.912 516.702L457.879 516.984L457.849 517.267L457.822 517.55L457.798 517.835L457.775 518.118L457.757 518.403L457.741 518.687L457.729 518.971L457.718 519.256L457.71 519.541L457.706 519.825L457.704 520.11V520.133Z" fill="white"></path>
</svg><style>@media (prefers-color-scheme: light) { :root { filter: none; } }
@media (prefers-color-scheme: dark) { :root { filter: none; } }
</style></svg>